<?xml version="1.0" encoding="UTF-8" standalone="no"?>
<!-- Created with Inkscape (http://www.inkscape.org/) -->

<svg
   xmlns:dc="http://purl.org/dc/elements/1.1/"
   xmlns:cc="http://creativecommons.org/ns#"
   xmlns:rdf="http://www.w3.org/1999/02/22-rdf-syntax-ns#"
   xmlns:svg="http://www.w3.org/2000/svg"
   xmlns="http://www.w3.org/2000/svg"
   xmlns:sodipodi="http://sodipodi.sourceforge.net/DTD/sodipodi-0.dtd"
   xmlns:inkscape="http://www.inkscape.org/namespaces/inkscape"
   width="50.182526mm"
   height="47.874924mm"
   viewBox="0 0 50.182527 47.874924"
   version="1.1"
   id="svg17651"
   inkscape:version="0.92.5 (2060ec1f9f, 2020-04-08)"
   sodipodi:docname="EmSysLogo.svg">
  <defs
     id="defs17645" />
  <sodipodi:namedview
     id="base"
     pagecolor="#ffffff"
     bordercolor="#666666"
     borderopacity="1.0"
     inkscape:pageopacity="0.0"
     inkscape:pageshadow="2"
     inkscape:zoom="1.4"
     inkscape:cx="-21.079528"
     inkscape:cy="1.8009019"
     inkscape:document-units="mm"
     inkscape:current-layer="g65"
     showgrid="false"
     fit-margin-top="0"
     fit-margin-left="0"
     fit-margin-right="0"
     fit-margin-bottom="0"
     inkscape:window-width="958"
     inkscape:window-height="1057"
     inkscape:window-x="1920"
     inkscape:window-y="0"
     inkscape:window-maximized="0" />
  <metadata
     id="metadata17648">
    <rdf:RDF>
      <cc:Work
         rdf:about="">
        <dc:format>image/svg+xml</dc:format>
        <dc:type
           rdf:resource="http://purl.org/dc/dcmitype/StillImage" />
        <dc:title></dc:title>
      </cc:Work>
    </rdf:RDF>
  </metadata>
  <g
     inkscape:label="Layer 1"
     inkscape:groupmode="layer"
     id="layer1"
     transform="translate(256.73655,65.197265)">
    <g
       id="g18002"
       transform="matrix(-0.94041949,0,0,-0.9529421,-323.42673,99.558043)">
      <g
         id="g65"
         transform="matrix(0.0862873,0,0,0.08367568,-64.305798,158.07239)">
        <path
           style="stroke-width:0.03527778"
           inkscape:connector-curvature="0"
           d="m -607.30205,-423.24682 c -0.0706,0.0706 -1.23473,0.28223 -2.64584,0.49389 -2.18722,0.28223 -4.05694,0.91723 -6.52638,2.18723 -0.35278,0.17638 -0.74084,0.21166 -0.91723,0.14111 -0.49389,-0.3175 -4.445,4.445 -4.02166,4.86833 0.10583,0.10583 -0.0706,0.28222 -0.38806,0.42333 -0.3175,0.10584 -0.56444,0.38806 -0.56444,0.56445 0,0.17639 -0.28223,0.77611 -0.67028,1.27 -0.67028,0.9525 -0.84667,1.62278 -1.48167,5.67972 -0.21166,1.27 -0.74083,3.38667 -1.19944,4.7625 -0.98778,2.99861 -1.69334,10.37167 -1.55222,16.61583 0.0353,2.32834 0.0705,4.55084 0.0705,4.93889 0,0.38806 -0.0705,4.05695 -0.10583,8.14917 -0.0706,4.09222 0,7.62 0.14111,7.86694 0.14111,0.21167 0.0705,0.635 -0.14111,0.91722 -0.21167,0.28223 -0.28222,0.67028 -0.14111,0.91723 0.14111,0.21166 0.21166,3.98639 0.14111,8.39611 -0.0353,4.37444 -0.0706,8.29027 -0.0706,8.67833 0.0706,4.69194 0.0353,14.07583 -0.0353,15.16944 -0.0705,0.77612 -0.24694,3.24556 -0.38805,5.46806 -0.14111,2.2225 -0.42333,4.51556 -0.59972,5.08 -0.17639,0.56445 -0.3175,1.97556 -0.3175,3.175 0,1.19945 -0.14111,3.10445 -0.35278,4.26861 -0.17639,1.16417 -0.42333,3.31611 -0.52917,4.7625 -0.10583,1.44639 -0.24694,3.10445 -0.35278,3.70417 -0.45861,2.57528 -0.84666,6.31472 -1.05833,10.40694 -0.14111,2.43417 -0.3175,4.51556 -0.42333,4.65667 -0.0706,0.17639 0.0353,0.28222 0.21166,0.28222 0.38806,0 0.52917,1.12889 0.21167,1.48167 -0.10583,0.10583 -0.28222,3.66889 -0.35278,7.90222 -0.10583,4.23333 -0.24694,8.67833 -0.3175,9.8425 -0.17639,2.8575 -0.56444,13.22917 -0.49389,14.11111 0.24695,3.63361 -0.10583,7.05556 -0.84666,8.5725 -0.35278,0.67028 -0.38806,1.41111 -0.21167,2.54 0.14111,0.88195 0.17639,1.83445 0.0706,2.11667 -0.10584,0.28222 -0.28223,2.64583 -0.35278,5.25639 -0.14111,3.91583 -0.0706,4.86833 0.38805,5.57389 0.45862,0.70555 0.49389,1.09361 0.21167,1.94027 -0.21167,0.59973 -0.38805,2.39889 -0.38805,4.02167 0,1.5875 -0.14112,3.31611 -0.3175,3.77472 -0.21167,0.49389 -0.21167,1.41111 -0.0353,2.2225 0.17639,0.74084 0.21166,1.51695 0.0705,1.69334 -0.10583,0.21166 -0.28222,1.97555 -0.3175,3.91583 -0.0705,1.94028 -0.21166,4.90361 -0.28222,6.59694 -0.35278,6.20889 -0.28222,8.78417 0.3175,9.73667 0.10583,0.21167 0.77611,0.56444 1.48167,0.77611 1.12889,0.38806 1.34055,0.35278 2.11666,-0.38806 0.67028,-0.635 0.81139,-1.05833 0.67028,-1.72861 -0.42333,-1.5875 -0.0705,-21.73111 0.52917,-31.39722 0.52917,-8.32555 0.59972,-9.06639 1.16417,-13.05278 0.28222,-2.04611 0.70555,-5.78555 0.9525,-8.29027 0.21166,-2.54 0.635,-5.36222 0.91722,-6.27945 0.70555,-2.25777 1.16416,-4.58611 1.41111,-6.77333 0.10583,-0.98778 0.21167,-2.15194 0.28222,-2.64583 0.0353,-0.49389 0.24695,-1.27 0.45861,-1.76389 0.17639,-0.49389 0.635,-1.94028 1.02306,-3.28084 0.35278,-1.30527 0.77611,-2.36361 0.9525,-2.36361 0.14111,0 0.21166,-0.14111 0.0705,-0.3175 -0.3175,-0.56444 2.04611,-6.59694 3.03389,-7.65527 0.35278,-0.38806 0.67028,-0.9525 0.67028,-1.27 0,-0.28223 0.3175,-0.81139 0.70556,-1.16417 0.38805,-0.35278 0.70555,-0.88194 0.70555,-1.16417 0,-0.77611 2.43417,-3.91583 3.4925,-4.445 0.49389,-0.28222 1.48167,-1.05833 2.11667,-1.76389 0.67027,-0.70555 1.48166,-1.27 1.76389,-1.27 0.3175,0 1.27,-0.28222 2.15194,-0.56444 0.88194,-0.3175 1.83444,-0.59972 2.11667,-0.635 0.28222,-0.0706 1.12889,-0.35278 1.905,-0.70556 0.74083,-0.3175 1.69333,-0.56444 2.11666,-0.49388 0.38806,0.0705 0.91723,-0.0706 1.09361,-0.3175 0.59973,-0.77612 6.63223,-0.635 9.87778,0.17638 4.69195,1.19945 8.60778,3.03389 9.56028,4.48028 0.3175,0.49389 0.77611,0.88195 0.98778,0.88195 0.49389,0 1.5875,1.41111 2.50472,3.175 0.3175,0.67027 0.98778,1.65805 1.48167,2.15194 0.45861,0.52917 1.09361,1.86972 1.37583,2.99861 0.3175,1.12889 0.88194,2.64583 1.23472,3.42195 0.38806,0.74083 0.67028,1.62277 0.635,1.94027 -0.0705,0.59973 0.21167,1.55223 0.74083,2.57528 0.17639,0.3175 0.24695,0.88195 0.21167,1.23472 -0.0706,0.35278 0.10583,0.88195 0.38806,1.12889 0.38805,0.38806 0.635,1.69334 0.49389,2.61056 0,0.14111 0.35277,1.12889 0.81138,2.18722 0.77612,1.72861 1.69334,5.15056 1.55223,5.78556 0,0.14111 0.0705,0.49388 0.17639,0.77611 0.38805,0.91722 1.02305,3.66889 0.98777,4.40972 0,0.38805 0.3175,1.94028 0.70556,3.42194 0.42333,1.51695 0.67028,2.99861 0.56444,3.28084 -0.14111,0.28222 -0.0706,0.59972 0.10584,0.70555 0.14111,0.10584 0.42333,1.27 0.52916,2.57528 0.14111,1.30528 0.45861,2.99861 0.70556,3.77472 0.24694,0.77611 0.49389,3.13972 0.49389,5.29167 0.0353,2.11666 0.21166,4.83305 0.35278,5.99722 0.17638,1.16417 0.17638,2.25778 0,2.43417 -0.14112,0.17639 -0.14112,0.56444 0,0.88194 0.56444,1.09361 0.81138,4.16278 0.98777,12.02972 0.0706,4.37445 0.21167,8.96056 0.3175,10.23056 0.0706,1.27 0.17639,3.95111 0.24695,5.99722 0.0353,2.04611 0.21166,3.91583 0.35278,4.1275 0.17638,0.24694 0.81138,0.45861 1.44638,0.45861 1.48167,0 2.50473,-1.02305 2.11667,-2.18722 -0.14111,-0.45861 -0.24694,-2.46945 -0.21167,-4.48028 0,-2.01083 -0.14111,-4.02167 -0.3175,-4.51555 -0.17638,-0.45862 -0.38805,-4.83306 -0.45861,-9.73667 -0.10583,-4.90361 -0.24694,-9.59556 -0.35277,-10.4775 -0.10584,-0.88194 -0.35278,-3.81 -0.56445,-6.52639 -0.17639,-2.71639 -0.42333,-5.64444 -0.49389,-6.52639 -0.28222,-3.59833 -1.69333,-12.52361 -2.04611,-12.94694 -0.21167,-0.28222 -0.28222,-0.56445 -0.17639,-0.67028 0.0706,-0.10583 -0.0353,-1.02305 -0.3175,-2.01083 -0.28222,-1.02306 -0.49389,-2.2225 -0.49389,-2.64584 0,-0.45861 -0.21166,-1.34055 -0.49389,-1.94027 -0.28222,-0.635 -0.59972,-1.62278 -0.67027,-2.18723 -0.56445,-3.38666 -0.98778,-5.25638 -1.86973,-7.76111 -0.52916,-1.55222 -0.98777,-3.06916 -0.98777,-3.35139 -0.0353,-0.3175 -0.17639,-0.70555 -0.28223,-0.88194 -0.10583,-0.21167 -0.42333,-1.30528 -0.67027,-2.46944 -0.24695,-1.16417 -0.635,-2.43417 -0.88195,-2.82223 -0.24694,-0.38805 -0.635,-1.65805 -0.84666,-2.82222 -0.59973,-2.96333 -5.46806,-10.40694 -7.97278,-12.20611 -5.36222,-3.88055 -11.60639,-5.96194 -17.99167,-5.96194 -5.11528,0 -14.78139,3.10444 -18.45028,5.96194 -1.58749,1.23472 -4.62138,4.37445 -4.62138,4.7625 0,0.17639 -0.21167,0.59972 -0.49389,0.88195 -0.24695,0.3175 -0.84667,1.23472 -1.30528,2.08138 -0.70556,1.30528 -0.74083,1.5875 -0.3175,1.83445 0.45861,0.28222 0.42333,0.35278 -0.10583,0.35278 -0.91723,0 -2.43417,2.75166 -3.4925,6.35 -2.89278,9.98361 -3.21028,9.63083 -2.92806,-3.10445 0.14111,-5.3975 0.28222,-10.72444 0.38806,-11.88861 0.0705,-1.16417 0.21166,-2.99861 0.28222,-4.05694 0.42333,-6.17361 0.91722,-11.35945 1.16417,-11.7475 0.14111,-0.24695 0.28222,-1.05834 0.3175,-1.83445 0.0353,-1.41111 0.74083,-9.66611 0.98777,-11.64166 0.0706,-0.59973 0.24695,-2.96334 0.35278,-5.29167 0.14111,-2.32834 0.3175,-5.25639 0.38806,-6.52639 0.10583,-1.27 0.17639,-3.56306 0.14111,-5.11528 -0.14111,-15.48694 -0.0706,-53.72805 0.10583,-55.38611 0.24695,-2.36361 0.59972,-4.33917 0.88195,-5.11528 0.10583,-0.28222 0.17638,-0.98778 0.14111,-1.51694 -0.0706,-0.52917 0.14111,-1.34056 0.42333,-1.76389 0.24694,-0.42333 0.70556,-2.04611 0.9525,-3.59833 0.24694,-1.55223 0.88194,-3.73945 1.41111,-4.83306 0.52917,-1.09361 0.88195,-2.08139 0.77611,-2.18722 -0.10583,-0.14111 -0.0353,-0.21167 0.17639,-0.21167 0.17639,0 0.84667,-0.70555 1.44639,-1.55222 0.84667,-1.19944 1.41111,-1.5875 2.43417,-1.79917 0.74083,-0.14111 1.65805,-0.42333 2.04611,-0.635 1.02305,-0.56444 6.13833,-1.55222 7.58472,-1.48166 1.76389,0.10583 6.13833,0.81139 8.04333,1.30527 2.68111,0.635 6.10306,2.57528 8.36084,4.72723 1.16416,1.09361 2.71638,2.43416 3.45722,2.99861 2.78694,2.04611 5.53861,5.85611 5.53861,7.62 0,0.59972 0.24694,1.27 0.52917,1.51694 0.28222,0.24695 0.42333,0.56445 0.31749,0.74083 -0.10583,0.17639 -0.0353,0.3175 0.14112,0.3175 0.17638,0 0.88194,1.27 1.5875,2.78695 1.05833,2.25778 1.37583,3.4925 1.65805,6.27944 0.21167,1.94028 0.3175,4.445 0.28222,5.60917 -0.10583,2.29306 0.35278,3.31611 1.48167,3.31611 0.3175,0 0.84667,-0.28222 1.16417,-0.635 0.52916,-0.56444 0.59972,-1.48167 0.49389,-6.80861 l -0.0706,-6.13833 -1.83444,-3.70417 c -1.02306,-2.04611 -1.86973,-3.98639 -1.86973,-4.30389 0,-0.3175 -0.28222,-0.635 -0.59972,-0.70555 -0.35278,-0.10584 -1.05833,-1.05834 -1.5875,-2.11667 -1.37583,-2.68111 -7.72583,-8.67833 -12.52361,-11.7475 -1.65805,-1.05833 -2.75167,-1.48167 -8.39611,-3.21028 -0.9525,-0.28222 -2.15194,-0.45861 -2.64583,-0.38805 -0.49389,0.10583 -1.02306,0.0353 -1.23473,-0.10584 -0.35277,-0.28222 -3.95111,-0.70555 -4.16277,-0.49389 z"
           id="path9452" />
        <path
           style="stroke-width:0.03527778"
           inkscape:connector-curvature="0"
           d="m -489.72123,-383.06543 c 0,0.28222 0.24696,0.52917 0.52916,0.52917 0.28224,0 0.52917,-0.24695 0.52917,-0.52917 0,-0.28222 -0.24693,-0.52916 -0.52917,-0.52916 -0.2822,0 -0.52916,0.24694 -0.52916,0.52916 z"
           id="path9456" />
        <path
           style="stroke-width:0.03527778"
           inkscape:connector-curvature="0"
           d="m -186.33528,-388.34226 c -4.3039,0.59973 -7.26723,3.38667 -15.45167,14.39334 -0.74083,0.98777 -2.43416,3.03389 -3.81,4.51555 -2.57526,2.8575 -2.9986,4.02167 -1.62276,4.33917 0.81137,0.21167 3.42193,-0.98778 3.42193,-1.55222 0,-0.14111 0.3175,-0.59973 0.70557,-1.02306 1.19943,-1.27 4.23333,-5.43278 4.23333,-5.78555 0,-0.21167 2.32833,-2.64584 5.15054,-5.43278 4.09223,-4.05695 5.43279,-5.15056 6.56166,-5.46806 1.55224,-0.38805 7.1614,-0.35278 8.04334,0.0705 1.55223,0.77612 2.96333,1.37584 3.28083,1.37584 0.1764,0 1.27,0.59972 2.43417,1.30528 1.905,1.16416 2.99863,2.36361 2.82223,2.99861 -0.0353,0.14111 0.42333,0.52916 0.98777,0.81139 0.59973,0.3175 1.02306,0.67027 0.91723,0.81138 -0.0706,0.14112 0.38806,1.30528 1.0936,2.54 0.6703,1.27 1.37583,2.8575 1.55223,3.52778 0.1764,0.67028 0.38807,1.48167 0.4939,1.76389 0.0705,0.28222 0.4586,1.48167 0.84667,2.61056 0.49387,1.37583 0.74083,2.96333 0.74083,4.69194 0,2.11667 0.1411,2.71639 0.70554,3.28083 1.05833,1.05834 2.18723,0.91723 2.96333,-0.38805 0.59973,-0.98778 0.59973,-1.34056 0.21167,-3.81 -0.56444,-3.70417 -1.0936,-5.99722 -1.65804,-7.37306 -0.24696,-0.635 -0.38806,-1.30527 -0.28223,-1.48166 0.21167,-0.3175 -2.0461,-5.18584 -3.77473,-8.14917 -0.635,-1.09361 -4.09221,-4.37444 -4.62137,-4.37444 -0.14113,0 -0.38807,-0.17639 -0.52917,-0.42334 -0.38807,-0.59972 -4.69196,-2.57527 -5.60917,-2.57527 -0.45863,0 -0.81139,-0.14112 -0.81139,-0.3175 0,-0.52917 -6.6675,-1.19945 -8.99584,-0.88195 z"
           id="path9458" />
        <path
           style="stroke-width:0.03527778"
           inkscape:connector-curvature="0"
           d="m -269.94361,-384.32059 c -0.9525,0.38806 -2.0461,0.67028 -2.3636,0.70556 -0.3528,0 -0.91724,0.28222 -1.3053,0.67027 -0.35277,0.35278 -1.02304,0.74084 -1.51694,0.84667 -0.4586,0.14111 -1.4111,0.635 -2.08139,1.09361 -0.67027,0.49389 -1.79917,1.23472 -2.54,1.62278 -1.5875,0.88194 -6.6675,5.89139 -8.71361,8.60778 -0.7761,1.02305 -1.51693,2.36361 -1.62276,2.96333 -0.21167,1.05833 -0.1764,1.12889 0.84666,1.12889 0.74084,0 1.23471,-0.24695 1.48167,-0.70556 0.21167,-0.38805 0.5997,-0.70555 0.88193,-0.70555 0.24694,0 0.84667,-0.52917 1.30527,-1.16417 1.3053,-1.83444 4.58613,-5.00944 6.2089,-6.0325 0.84667,-0.52917 1.5875,-1.16417 1.7286,-1.44639 0.10584,-0.28222 0.42334,-0.52916 0.74084,-0.52916 0.3175,0 0.88196,-0.3175 1.30529,-0.70556 0.42334,-0.38806 2.11667,-1.30528 3.73944,-1.97556 2.64583,-1.16416 3.38666,-1.30527 6.94973,-1.44638 2.46943,-0.14112 4.30387,-0.0706 4.7625,0.17638 0.42333,0.21167 1.79917,0.70556 3.03387,1.09362 2.18723,0.70555 6.0325,3.21027 6.0325,3.95111 0,0.21166 0.45863,0.9525 1.02306,1.65805 1.7639,2.25778 6.27944,11.7475 5.8914,12.3825 -0.3175,0.45861 1.19944,1.09361 2.61054,1.09361 1.51696,0 1.65806,-1.16416 0.52917,-3.73944 -0.52917,-1.12889 -1.37584,-3.28083 -1.94027,-4.72722 -1.30527,-3.52778 -2.46944,-5.50334 -4.7625,-8.18445 -3.175,-3.70416 -3.59834,-4.02166 -7.33777,-5.60916 l -3.59833,-1.55223 -4.7625,-0.0706 c -3.95113,-0.0705 -5.04473,0.0353 -6.5264,0.59973 z"
           id="path9460" />
        <path
           style="stroke-width:0.03527778"
           inkscape:connector-curvature="0"
           d="m -334.14918,-379.55809 c -1.7286,0.24694 -3.4925,0.52917 -3.88053,0.70556 -1.905,0.70555 -6.8439,3.24555 -8.07863,4.1275 -0.74084,0.52916 -1.51694,0.98777 -1.69334,0.98777 -0.52916,0 -6.27943,5.36223 -6.27943,5.82084 0,0.67027 1.5875,0.81139 2.8575,0.28222 0.635,-0.28222 1.97556,-1.09361 2.96333,-1.79917 3.91583,-2.96333 4.6214,-3.42194 6.985,-4.58611 1.7639,-0.88194 3.45723,-1.37583 5.8561,-1.72861 3.42197,-0.52917 7.58473,-0.35278 7.9728,0.28222 0.1411,0.17639 1.0936,0.74084 2.1872,1.27 1.48167,0.74084 2.54,1.65806 4.09223,3.52778 1.16417,1.41111 2.2225,2.57528 2.3989,2.57528 0.1411,0 0.4586,0.59972 0.70554,1.30528 0.38806,1.23472 2.15196,4.02166 3.42196,5.46805 0.59971,0.74083 2.18721,0.84667 2.82221,0.21167 0.70556,-0.70556 0.49389,-1.55222 -1.02304,-3.81 -0.77613,-1.19945 -1.6228,-2.57528 -1.83446,-3.10445 -1.16417,-2.61055 -3.52777,-5.715 -5.18584,-6.77333 -0.9172,-0.59972 -1.79916,-1.30528 -1.905,-1.5875 -0.10583,-0.28222 -0.42333,-0.52917 -0.74083,-0.52917 -0.2822,0 -0.52917,-0.14111 -0.52917,-0.28222 0,-0.3175 -2.39887,-1.5875 -3.10443,-1.62278 -0.24694,-0.0353 -0.56444,-0.21166 -0.70557,-0.42333 -0.38803,-0.59972 -3.84527,-0.74083 -7.3025,-0.3175 z"
           id="path9462" />
        <path
           style="stroke-width:0.03527778"
           inkscape:connector-curvature="0"
           d="m -136.27611,-347.84337 c -0.21167,0.52917 -3.42194,0.84667 -12.48834,1.09362 -13.26443,0.42333 -16.1925,0.56444 -19.05,0.91722 -2.01083,0.28222 -9.77193,0.38805 -23.24806,0.35278 -12.13554,-0.0353 -20.955,0.0705 -22.0486,0.28222 -0.98777,0.17639 -3.4925,0.42333 -5.5739,0.49389 -2.08137,0.10583 -3.9511,0.28222 -4.16277,0.42333 -0.21167,0.14111 -4.23333,0.3175 -8.92527,0.35278 -4.69196,0.0705 -9.17223,0.21166 -9.94833,0.35278 -0.77613,0.10583 -9.80723,0.28222 -20.10833,0.38805 -10.26584,0.0706 -19.89667,0.28222 -21.34307,0.45861 -1.4464,0.14111 -3.59833,0.17639 -4.79777,0.0353 -1.19946,-0.14111 -6.27946,-0.28222 -11.2889,-0.3175 -5.00943,-0.0353 -10.08943,-0.14111 -11.2536,-0.21167 -1.16416,-0.0705 -3.31613,0.10584 -4.7625,0.42334 -2.11666,0.42333 -3.91583,0.49389 -8.7489,0.3175 -3.38666,-0.14111 -6.24416,-0.24695 -6.35,-0.24695 -0.1411,-0.0353 -0.38806,0 -0.59973,0.0706 -0.35277,0.10583 -2.54,0.21166 -10.23053,0.45861 -8.04334,0.24694 -11.2889,0.52917 -12.5589,1.05833 -0.98777,0.42334 -1.7639,0.45861 -3.59833,0.21167 -1.94027,-0.28222 -2.54,-0.24695 -3.6689,0.28222 -1.65804,0.74083 -1.62277,1.51695 0.0706,3.06917 1.0936,1.02305 1.27,1.05833 4.09223,0.98778 3.3161,-0.0353 7.97277,-0.56445 10.90084,-1.19945 1.05833,-0.21167 3.06916,-0.45861 4.4097,-0.49389 1.37583,-0.0705 3.59833,-0.17639 4.9389,-0.3175 3.6689,-0.3175 22.89527,-0.56444 38.1,-0.52916 25.68223,0.10583 41.66306,-0.0353 44.6264,-0.38806 1.65803,-0.21167 4.33916,-0.3175 5.9972,-0.28222 5.64446,0.14111 23.10696,-0.45861 26.9875,-0.9525 2.15196,-0.24695 4.19806,-0.49389 4.58613,-0.52917 0.38804,-0.0353 11.1125,-0.14111 23.8125,-0.24694 26.14083,-0.21167 30.37417,-0.28223 33.76083,-0.59973 1.30527,-0.10583 5.57387,-0.3175 9.45444,-0.42333 3.88056,-0.10583 8.67833,-0.28222 10.6539,-0.42333 3.7747,-0.28222 5.0447,0.0705 5.0447,1.30528 0,0.3175 0.24694,1.02305 0.56444,1.62277 0.9525,1.69334 1.62279,5.64445 1.79916,10.58334 0.21167,4.93889 0.21167,5.25639 0.10584,22.29555 0,6.27945 0.0353,11.53583 0.17639,11.7475 0.10584,0.17639 0.28223,2.82222 0.38807,5.89139 0.10583,3.06917 0.24693,6.13833 0.35277,6.80861 0.21166,1.76389 0.21166,13.68778 0,15.13417 -0.10584,0.67027 -0.0706,1.37583 0.0706,1.5875 0.4586,0.67027 0.52917,5.75027 0.0705,6.0325 -0.28221,0.17639 -0.3175,0.91722 -0.1411,2.43416 0.35277,3.06917 0.38806,5.64445 0.0353,8.67834 -0.35277,3.59833 -0.3175,9.10166 0.10583,12.52361 0.1764,1.55222 0.52917,4.65666 0.74083,6.87916 0.21167,2.2225 0.56447,4.93889 0.77613,5.99723 0.21167,1.05833 0.35277,2.18722 0.3175,2.46944 -0.21167,1.30528 -0.14113,3.56306 0.21167,5.99722 0.21167,1.44639 0.42333,3.56306 0.42333,4.65667 0,1.09361 0.1411,2.39889 0.3175,2.8575 0.4586,1.16416 0.7761,6.77333 0.70554,12.24139 -0.17637,10.6186 -0.10583,20.91973 0.10583,24.34167 0.59973,9.2075 0.70557,16.40416 0.24696,17.4625 -0.28223,0.70556 -0.38806,2.6811 -0.3175,5.99723 0.14111,5.18583 0.10584,9.27804 0,11.64166 -0.10583,1.76388 0.59971,13.61721 0.98777,16.79221 0.1764,1.30527 0.1764,3.52777 0.0353,4.9389 -0.10583,1.44637 -0.1411,3.56303 -0.0353,4.7272 0.1764,2.18723 0.24694,5.36223 0.1764,10.230568 0,1.55223 0,4.02166 0,5.46806 0,1.44637 -0.0706,3.35137 -0.1764,4.19804 -0.10583,0.88196 -0.0353,1.94029 0.14111,2.36363 0.24696,0.52916 0.28223,1.83443 0.0706,3.73943 -0.1764,1.62277 -0.21167,4.5861 -0.10583,6.63223 0.1411,2.04611 0.35277,5.92667 0.49389,8.64304 0.14111,2.7164 0.38804,5.2564 0.52917,5.64446 0.1411,0.38804 0.28221,3.175 0.28221,6.17361 0,7.51416 0.38806,13.22916 1.02306,15.52223 0.28223,1.05833 0.59973,3.59833 0.70557,5.64443 0.0705,2.0461 0.35276,4.5861 0.635,5.64444 0.24693,1.05833 0.56443,3.13973 0.70553,4.58613 0.14113,1.44637 0.38807,3.1397 0.56447,3.70416 0.52916,1.76387 0.88193,9.77194 0.67026,15.2047098 -0.0706,1.37583 -0.0353,2.64583 0.0706,2.82223 0.3175,0.4939 0.81137,21.0255602 0.70554,28.5397302 -0.0353,3.66887 -0.24694,7.47887 -0.42334,8.46667 -0.42333,2.15193 -0.56443,24.87083 -0.17637,30.69166 0.1411,2.32834 0.42334,4.62137 0.59971,5.11527 0.21166,0.4939 0.42333,2.15194 0.49389,3.70417 0.10584,1.55223 0.28224,3.59833 0.45861,4.5861 0.14113,0.9525 0.24696,4.51557 0.17639,7.86696 -0.0706,5.96194 -0.10583,6.17361 -1.02306,7.51417 -0.56444,0.9172 -0.84667,1.65804 -0.70554,2.11667 0.1411,0.42333 0.0705,0.67027 -0.21166,0.67027 -0.24697,0 -0.3175,0.10583 -0.21167,0.21166 0.1411,0.1411 -0.28223,0.84667 -0.91723,1.55223 -2.25777,2.645842 -2.57527,3.069172 -2.43417,3.492502 0.0706,0.21167 -0.10583,0.38804 -0.42333,0.38804 -0.28223,0 -0.67027,0.21167 -0.8114,0.4939 -0.1411,0.24693 -0.81137,0.74083 -1.4111,1.05833 -0.635,0.3175 -1.16417,0.70557 -1.16417,0.88194 0,0.1764 -0.9525,0.38806 -2.11667,0.52916 -1.12889,0.14113 -2.75166,0.59974 -3.59833,1.05834 -1.5875,0.88196 -5.11527,1.27 -12.9822,1.48166 -1.83447,0.0353 -5.50334,0.24697 -8.1139,0.45863 -2.61057,0.21167 -5.8561,0.45861 -7.23194,0.52917 -1.34056,0.10583 -3.88056,0.3175 -5.64446,0.52917 -11.95917,1.37583 -64.34667,1.94027 -89.78193,0.9525 -3.9864,-0.1764 -13.47611,0.21166 -17.4625,0.70553 -0.56444,0.0706 -3.6689,0.28224 -6.87917,0.4939 -5.715,0.35277 -9.8425,0.7761 -13.8289,1.37584 -1.0936,0.17639 -4.7272,0.35276 -8.04333,0.35276 -3.3161,0.0353 -8.04334,0.28224 -10.51277,0.59974 -2.46944,0.28223 -7.40833,0.67026 -11.00667,0.84666 -3.59833,0.1764 -7.4789,0.4586 -8.64306,0.67027 -1.16417,0.1764 -5.11527,0.3528 -8.81944,0.38807 -3.6689,0 -8.29027,0.17639 -10.23056,0.38806 -3.56304,0.3175 -16.0161,0.81137 -20.28471,0.7761 -1.27,0 -5.60916,-0.0353 -9.70139,-0.10583 -6.31474,-0.0706 -18.7325,0.28223 -33.16111,0.88193 -1.94029,0.10584 -4.62139,0.3175 -5.99723,0.52917 -1.51693,0.21167 -4.33916,0.24696 -7.23193,0.0706 -2.61057,-0.14111 -5.46807,-0.14111 -6.35,0.0353 -1.905,0.3528 -15.31057,0 -17.8153,-0.49387 -0.9525,-0.17639 -2.78693,-0.38806 -4.05693,-0.45863 -7.4789,-0.49387 -8.85474,-0.635 -14.64027,-1.48166 -1.41113,-0.17637 -23.74194,-0.67027 -28.04584,-0.56444 -8.11389,0.1411 -20.21416,0.84667 -21.0961,1.19944 -1.65806,0.67029 -20.21417,0.98779 -20.99029,0.35279 -0.28221,-0.24696 -0.91721,-0.28223 -1.79917,-0.0706 -1.27,0.28223 -2.57527,0.21167 -3.70417,-0.1764 -0.24693,-0.10583 -2.96333,-0.2822 -5.9972,-0.38804 -7.4789,-0.28223 -7.23196,-0.28223 -7.62,-0.70556 -0.1764,-0.24694 -0.8114,-0.52917 -1.34057,-0.635 -0.56443,-0.1411 -1.0936,-0.56444 -1.30527,-1.05833 -0.17639,-0.4939 -0.59973,-0.9525 -0.9525,-1.05834 -0.52916,-0.1764 -1.94029,-2.01083 -2.08139,-2.6811 0,-0.10583 -0.21167,-0.59973 -0.42334,-1.16417 -1.0936,-2.46946 -1.19943,-3.06916 -1.27,-5.53863 -0.0706,-2.8575 -0.84666,-4.938872 -1.83443,-4.938872 -0.59973,0 -0.59973,-1.86973 0.10583,-12.87639 0.28221,-4.86834 0.28221,-10.90084 -0.0353,-11.39474 -0.10584,-0.21166 -0.21167,-1.05833 -0.21167,-1.905 0.0353,-0.84666 -0.0705,-4.23333 -0.1411,-7.51416 -0.45861,-14.21694 -0.59973,-32.91417 -0.24694,-34.57221 0.17637,-0.9525 0.21167,-1.905 0.0353,-2.11666 -0.1411,-0.1764 -0.38806,-1.48167 -0.4939,-2.82223 -0.38804,-5.08 -0.7761,-8.50194 -1.02304,-8.89 -0.42333,-0.67027 -0.59973,-2.89277 -0.81139,-9.9836102 -0.35277,-13.15863 -0.45861,-16.1219598 -0.84667,-25.2236298 -0.21167,-5.0447 -0.4586,-13.54666 -0.52917,-18.8736 -0.10583,-5.32693 -0.28223,-11.14777 -0.35277,-12.8764 -0.24696,-3.73943 -0.21166,-8.29026 0.0353,-8.7136 0.10584,-0.1764 0.0353,-0.8114 -0.17639,-1.4464 -0.52917,-1.5875 -0.81138,-25.29416 -0.35277,-27.97526 0.17639,-1.1289 0.42333,-4.05694 0.49389,-6.49111 0.0705,-2.43416 0.38804,-5.891388 0.70554,-7.690558 0.56446,-3.13973 0.56446,-3.3161 -0.0353,-3.9864 -0.91723,-1.02304 -2.75166,-0.7761 -3.66889,0.42333 -0.42334,0.59974 -0.56444,1.05834 -0.35277,1.19947 0.4586,0.2822 0.4586,3.4572 0,3.91583 -0.21167,0.21167 -0.21167,1.05833 -0.0353,2.293038 0.3175,1.905 0.10583,3.95113 -0.52917,4.9389 -0.1764,0.28223 -0.35279,5.08 -0.42333,10.72443 -0.0353,5.60917 -0.10584,10.68917 -0.10584,11.2889 -0.0353,1.94027 0.28221,12.34723 0.38804,12.34723 0.0353,0 0.14113,1.7286 0.21167,3.88054 0.0353,2.11666 0.1764,5.46806 0.28223,7.40833 0.10583,1.9403 0.28223,9.5603 0.38806,16.93333 0.10584,7.37307 0.28221,15.5575 0.38804,18.16807 0.24696,6.7380598 0.38807,10.9713998 0.6703,20.6374998 0.10583,4.6566702 0.3175,8.7136002 0.42333,8.9958302 0.1411,0.28223 0.17637,0.8114 0.1411,1.1289 -0.0353,0.3175 0.24694,2.29304 0.635,4.4097 0.84667,4.65667 0.91723,6.0678 0.70557,15.45167 -0.0353,1.72863 0.0705,6.49113 0.17637,10.58333 0.14113,4.05697 0.3175,11.04197 0.38806,15.52224 0.14111,8.32556 0.38807,14.32276 0.70557,17.88583 0.10583,1.1289 0.0353,2.6811 -0.1764,3.52777 -0.24694,0.8114 -0.4586,4.40973 -0.52917,8.00806 -0.0706,4.5861 -0.24693,6.87917 -0.56443,7.58473 -0.42334,0.917212 -0.38807,1.058342 0.49387,1.834442 0.56446,0.4586 1.23473,0.84667 1.51696,0.84667 0.38804,0 0.49387,0.52916 0.49387,2.39889 0,1.94027 0.10584,2.46944 0.6703,2.89277 0.38804,0.24694 0.635,0.635 0.52916,0.7761 -0.10583,0.1764 0.0353,0.70557 0.35277,1.16417 0.3175,0.45863 0.56444,1.34057 0.56444,1.905 0,0.70557 0.28223,1.27 0.88196,1.72863 0.49387,0.38804 0.88194,0.9525 0.88194,1.2347 0,0.70557 1.65806,2.01084 2.50473,2.01084 0.35277,0 0.88193,0.38806 1.19943,0.8114 0.635,0.98776 1.94027,1.65806 3.175,1.65806 0.45861,0 1.7639,0.24694 2.89277,0.56444 1.1289,0.28223 3.31613,0.59973 4.86834,0.67026 1.55223,0.0706 3.42196,0.21167 4.19806,0.3528 0.9525,0.17637 1.4464,0.1411 1.62277,-0.1764 0.21167,-0.35277 0.77613,-0.35277 2.32833,-0.10583 3.4925,0.56443 20.07307,0.1411 29.77446,-0.74083 3.21027,-0.28224 8.64304,-0.59974 12.10027,-0.70557 3.4925,-0.0705 6.38527,-0.24693 6.49111,-0.3175 0.0706,-0.10583 2.32833,-0.0705 4.97416,0.0353 2.64584,0.10583 6.27944,0.24693 8.00807,0.2822 1.76387,0.0353 4.37443,0.24696 5.82083,0.45863 1.48167,0.21167 3.81,0.3175 5.29167,0.17637 1.48166,-0.10583 4.0922,-0.0353 5.82083,0.1764 1.76387,0.24693 5.15054,0.56443 7.5847,0.74083 2.43417,0.1764 5.22113,0.42334 6.17363,0.52917 0.98777,0.10583 2.89277,0.28223 4.23334,0.35277 1.37583,0.0706 4.23333,0.24696 6.35,0.35279 2.15193,0.14111 4.19803,0.24694 4.5861,0.21167 0.38806,-0.0353 4.445,-0.0353 8.99583,-0.0353 4.55084,0 9.63084,-0.1411 11.2889,-0.35276 8.36083,-0.9525 21.66054,-1.37584 42.29804,-1.37584 10.9714,0 20.955,-0.1411 22.75416,-0.35277 7.40834,-0.84666 11.1478,-1.12889 11.4653,-0.91723 0.21167,0.10584 2.8575,0.0353 5.92667,-0.1764 3.06916,-0.21166 6.91443,-0.4586 8.5725,-0.56443 1.65803,-0.10583 6.1736,-0.42333 10.05416,-0.70557 3.88054,-0.2822 9.2075,-0.5997 11.81804,-0.67026 9.2428,-0.28224 13.26446,-0.56444 15.52223,-1.05834 1.27,-0.28223 4.69194,-0.56443 7.58473,-0.67027 2.92804,-0.10583 7.09084,-0.42333 9.31334,-0.74083 6.06777,-0.84667 14.21693,-0.84667 48.01303,0.0353 5.53863,0.1411 8.6078,0.10583 9.2428,-0.1764 0.67027,-0.24693 1.27,-0.24693 2.01083,0 0.70554,0.24696 1.44637,0.24696 2.39887,0 0.84667,-0.24693 8.1139,-0.38804 19.685,-0.38804 13.89947,-0.0353 19.2264,-0.14113 22.18974,-0.56446 2.15193,-0.2822 4.23333,-0.5997 4.62139,-0.70554 0.38804,-0.14113 2.43417,-0.28223 4.58611,-0.35279 2.11666,-0.0705 4.83306,-0.28221 5.99723,-0.49387 1.8697,-0.3528 4.445,-0.45863 18.2386,-0.8114 1.905,-0.0353 3.4572,-0.21167 3.4572,-0.35277 0,-0.1764 0.14113,-0.21167 0.28223,-0.10583 0.45861,0.2822 1.83444,-0.8114 1.83444,-1.41113 0,-0.42334 0.45863,-0.52917 2.04613,-0.49387 2.75167,0 4.30387,-0.3175 4.5861,-1.02307 0.1411,-0.35277 0.7761,-1.05833 1.4464,-1.65806 2.46943,-2.15194 3.98637,-3.91584 4.65667,-5.32694 0.38803,-0.811402 0.9172,-1.622772 1.19943,-1.763902 0.24694,-0.1411 0.4939,-0.38803 0.4939,-0.56443 0,-0.1411 0.2822,-0.7761 0.5997,-1.4111 0.3528,-0.59973 0.6703,-1.6228 0.74084,-2.18723 0.0353,-0.59974 0.21166,-1.30527 0.3175,-1.5875 0.35279,-0.84667 0.42333,-7.62 0.10583,-11.2889 -0.17637,-1.83444 -0.38804,-4.69194 -0.49387,-6.35 -0.14113,-1.65804 -0.4939,-4.5861 -0.77613,-6.52637 -0.7761,-4.72723 -0.88194,-28.22223 -0.17637,-37.7825 0.49387,-6.87917 0.5997,-17.6389 0.24693,-25.0119702 -0.10583,-2.32833 -0.21166,-7.72583 -0.17639,-11.99443 0,-5.7502698 -0.14111,-8.4313998 -0.56444,-10.4069398 -0.3175,-1.44639 -0.56443,-3.35139 -0.52917,-4.19806 0,-0.88194 -0.1411,-1.7639 -0.28223,-1.94027 -0.3175,-0.42333 -0.74083,-3.63363 -0.9172,-6.91446 -0.0353,-1.05834 -0.28223,-2.39887 -0.52917,-2.9986 -0.21166,-0.56444 -0.4939,-2.3989 -0.56446,-4.05694 -0.10583,-1.65806 -0.3175,-3.70417 -0.49387,-4.58613 -0.56446,-2.6811 -0.74083,-5.57387 -0.88196,-12.5236 -0.0705,-3.70417 -0.38804,-8.7489 -0.70554,-11.2889 -0.42333,-3.3161 -0.56446,-7.4436 -0.56446,-15.16943 0,-5.82084 0,-12.34724 0,-14.4639 -0.0353,-5.00944 -0.0353,-6.103038 0.0353,-9.524998 0.10584,-3.88054 -0.28223,-14.605 -0.70556,-19.93194 -0.1764,-2.43416 -0.35277,-5.92666 -0.35277,-7.7611 -0.10583,-16.51 -0.0353,-22.225 0.21167,-25.5764 0.42333,-5.43277 0.17637,-14.85193 -0.56447,-21.16666 -0.17637,-1.55221 -0.24693,-3.31611 -0.17637,-3.88054 0.35277,-2.3989 0.49387,-8.6078 0.21167,-8.71363 -0.1764,-0.0705 -0.1764,-0.88194 -0.0353,-1.86972 0.42334,-2.43416 0.42334,-7.90222 0,-11.28889 -0.17637,-1.55222 -0.42333,-4.30389 -0.52916,-6.13833 -0.10584,-1.79917 -0.24694,-3.42194 -0.35277,-3.56305 -0.0706,-0.14112 -0.24694,-1.72862 -0.35277,-3.56306 -0.10583,-1.83444 -0.3528,-4.26861 -0.52917,-5.43278 -0.1764,-1.16416 -0.42333,-3.06916 -0.56446,-4.23333 -0.1411,-1.16417 -0.2822,-2.68111 -0.38804,-3.35139 -0.56446,-4.7625 -0.9525,-14.99306 -0.59973,-15.875 0.10583,-0.28222 0.21167,-4.40972 0.1764,-9.17222 0,-11.43 0,-12.94695 0.17637,-14.81667 0.1764,-2.43416 0.14113,-3.98639 -0.2822,-9.34861 -0.1764,-2.71639 -0.42334,-7.72583 -0.4939,-11.1125 -0.0706,-3.38666 -0.21167,-6.56166 -0.35277,-7.05555 -0.38807,-1.51695 -0.45863,-6.35 -0.14113,-10.08945 0.24696,-2.78694 0.21167,-3.91583 -0.17637,-5.22111 -0.42333,-1.37583 -0.42333,-1.83444 -0.0706,-2.43417 0.4939,-0.91722 0.635,-14.35805 0.10584,-14.35805 -0.1411,0 -0.1764,-0.70556 -0.0706,-1.51694 0.14113,-0.91723 0.0706,-1.94028 -0.17637,-2.57528 -0.24696,-0.56445 -0.52916,-1.905 -0.70556,-2.96334 -0.56444,-4.40972 -0.9525,-5.75027 -1.905,-7.05555 -0.24694,-0.28222 -0.635,-1.09361 -0.88194,-1.76389 -0.67029,-1.86972 -1.5875,-2.46944 -3.56306,-2.46944 -1.16417,0 -1.79917,0.17638 -1.94027,0.49388 z"
           id="path9468" />
        <path
           style="stroke-width:0.03527778"
           inkscape:connector-curvature="0"
           d="m -254.6654,-306.33626 c -0.4586,0.17639 -0.8114,0.49389 -0.8114,0.70556 0,0.17638 -0.38803,0.35277 -0.88193,0.35277 -0.4939,0 -1.86973,0.42334 -3.10444,0.91723 -1.5875,0.67027 -2.57529,0.88194 -3.66889,0.74083 -0.84667,-0.0706 -1.62277,-0.0353 -1.72861,0.14111 -0.10583,0.17639 -4.02166,0.28222 -8.71363,0.24694 -4.69193,-0.0353 -9.4897,0 -10.65387,0.0706 -1.16416,0.0706 -5.04473,0 -8.64306,-0.14111 -3.59833,-0.17639 -7.9375,-0.35278 -9.7014,-0.45861 -3.6336,-0.14111 -3.38667,-0.14111 -13.75833,-0.10584 -4.2686,0 -8.85471,-0.0353 -10.23054,-0.10583 -3.06917,-0.10583 -4.05696,0.38806 -4.05696,2.04611 0,2.04611 1.02306,2.25778 10.05416,2.08139 14.0053,-0.28222 19.685,-0.21167 24.34167,0.21167 5.96196,0.56444 11.67696,0.635 14.99307,0.17639 1.44639,-0.17639 3.88056,-0.24695 5.3975,-0.14111 5.64443,0.45861 15.83973,-0.0706 17.21556,-0.91723 0.24693,-0.17639 1.05833,-0.42333 1.79917,-0.52916 l 1.37583,-0.28223 -0.1764,3.84528 c -0.1411,2.08139 -0.3175,4.05695 -0.42333,4.37445 -0.1411,0.28222 -0.0706,0.74083 0.10583,0.98777 0.1764,0.21167 0.38807,1.72862 0.42333,3.31612 0.0353,1.5875 0.14111,3.38666 0.21167,3.98638 0.1764,1.27 0.635,10.72445 0.59973,11.88861 -0.0353,0.45862 -0.0353,1.09362 -0.0353,1.41112 0.0353,0.35277 0.0706,5.78555 0.10583,12.10027 0.0353,6.6675 0.1764,11.67695 0.38807,11.99445 0.17639,0.28222 0.35276,2.08139 0.35276,3.95111 0,1.86972 0.10584,3.52778 0.24697,3.63361 0.10583,0.10583 0.10583,0.91722 0,1.76389 -0.0706,0.84666 -0.0353,1.83444 0.10583,2.18722 0.38804,0.88194 0.42333,1.19944 0.17637,2.2225 -0.1411,0.49389 -0.1411,2.39889 0,4.23333 0.14113,1.83445 0.10583,3.73945 -0.0705,4.19806 -0.1764,0.49389 -0.1764,0.98778 0.0353,1.23472 0.21167,0.24695 0.28223,1.12889 0.21167,1.97556 -0.0706,0.84666 -0.0353,1.72861 0.1411,1.94027 0.14113,0.17639 0.1764,1.72862 0.10583,3.42195 l -0.1411,3.06917 -1.48166,0.17638 c -1.72861,0.24695 -7.4789,0.52917 -13.79361,0.74084 -3.10446,0.10583 -4.83306,0.0353 -5.3975,-0.24695 -0.52916,-0.28222 -0.91723,-0.28222 -1.05833,-0.10583 -0.21167,0.28222 -6.8439,0.35278 -10.30113,0.14111 -0.49387,-0.0353 -4.05693,0.0353 -7.9375,0.21167 -3.88054,0.14111 -9.59554,0.3175 -12.7,0.42333 -3.10443,0.0706 -6.27943,0.17639 -7.05554,0.24694 -5.53863,0.52917 -9.31333,0.67028 -11.81806,0.49389 -0.28223,-0.0353 -1.19944,0 -2.01083,0 -1.34057,0.0706 -1.48167,0.17639 -1.69334,1.16417 -0.1764,0.74083 -0.10583,1.27 0.24694,1.62278 0.4939,0.49389 4.48029,1.5875 4.86833,1.34055 0.10583,-0.0705 1.4464,-0.21166 2.99863,-0.3175 1.5522,-0.10583 3.4572,-0.28222 4.23333,-0.38805 1.905,-0.24695 8.50194,-0.635 10.23054,-0.59972 0.77613,0 2.36363,0.0353 3.5278,0.0705 1.16416,0.0353 4.02166,-0.0705 6.35,-0.21167 4.4097,-0.28222 20.67277,-0.21166 24.34166,0.0706 1.16417,0.10583 2.75167,0.17639 3.52777,0.17639 1.7639,0.0353 10.68917,-0.70556 11.67694,-0.9525 0.42333,-0.10583 0.88196,-0.0353 1.02306,0.21167 0.1411,0.21166 0.4939,0.28222 0.84667,0.17638 0.3175,-0.10583 0.88193,0.0353 1.27,0.3175 0.7761,0.56445 0.7761,0.74084 0.38806,13.26445 -0.1764,4.7625 -0.3175,10.08944 -0.35279,11.81805 -0.0353,1.76389 -0.21167,3.38667 -0.35277,3.63362 -0.1411,0.24694 -0.10583,0.67027 0.10583,0.91722 0.38807,0.45861 0.91723,13.61722 0.88194,21.20194 -0.0353,2.82223 -0.49387,23.1775 -0.56444,24.51806 0,0.28223 0.0706,1.94027 0.21167,3.70417 0.10583,1.7286 0.24693,3.81 0.28223,4.5861 l 0.10583,1.41113 -4.19806,0.56443 c -2.29307,0.35277 -5.92667,0.70557 -8.04333,0.8114 -2.11667,0.10583 -4.19807,0.38804 -4.6214,0.59971 -0.42334,0.24696 -1.86971,0.42333 -3.24554,0.42333 -6.24417,-0.0353 -18.20333,-0.49387 -20.10833,-0.7761 -1.16417,-0.14111 -2.68113,-0.24694 -3.3514,-0.1764 -1.23473,0.10583 -14.21694,0.21167 -25.4,0.1764 -3.21027,-0.0353 -6.38527,-0.0353 -7.1261,-0.0353 -1.51697,0.0353 -1.97557,0.7761 -1.1289,2.01083 1.02306,1.62277 2.25777,1.83444 10.05417,1.79917 3.9511,0 9.48973,0 12.31193,0.0705 2.82223,0.0353 6.77333,-0.0353 8.81946,-0.17638 2.29304,-0.14112 4.51554,-0.10583 5.82084,0.14111 1.16416,0.21166 3.3161,0.35277 4.7625,0.35277 1.44637,0 3.4572,-0.0353 4.4097,-0.0353 0.9878,0 4.23333,0.10583 7.23196,0.24693 3.45721,0.14113 6.56167,0.10584 8.46667,-0.1411 13.37027,-1.7286 14.21694,-1.83444 14.5697,-1.48167 1.3053,1.30527 5.715,-0.74083 4.9389,-2.29306 -0.21166,-0.42333 -0.28223,-8.32554 -0.1764,-20.60221 0.1764,-23.77723 0.1764,-26.42306 -0.10583,-30.3389 -0.24693,-3.56305 -0.3175,-16.75694 -0.0705,-20.28472 0.0705,-1.37583 0,-2.64583 -0.17639,-2.89278 -0.21167,-0.24694 -0.1764,-0.9525 0.0353,-1.76388 0.21167,-0.81139 0.28224,-4.26862 0.1764,-8.92528 -0.10583,-4.16278 -0.24693,-9.56028 -0.28223,-11.99445 -0.0705,-2.43416 -0.21167,-6.06777 -0.35277,-8.11388 -0.24693,-3.56306 -0.35277,-6.0325 -0.70556,-16.75695 -0.0705,-2.71639 -0.24694,-5.96194 -0.38804,-7.23194 -0.10583,-1.27 -0.28223,-7.62 -0.38806,-14.11111 -0.0706,-6.49111 -0.24694,-14.9225 -0.35277,-18.69722 -0.1764,-6.49112 -0.21167,-7.69056 -0.14113,-9.63084 0,-0.42333 0.0353,-1.62278 0.0353,-2.68111 0,-1.02305 0.10584,-2.15194 0.28221,-2.46944 0.45863,-0.84667 0.1764,-7.37306 -0.3175,-7.97278 -0.49387,-0.59972 -2.18721,-0.67028 -3.42194,-0.17639 z"
           id="path9470" />
        <path
           style="stroke-width:0.03527778"
           inkscape:connector-curvature="0"
           d="m -509.22983,-301.89126 c -0.3175,0.35278 -4.55084,1.16417 -5.00944,0.9525 -0.24696,-0.0706 -1.27,0.10583 -2.2578,0.45861 -1.02303,0.3175 -1.905,0.49389 -2.0461,0.38806 -0.10583,-0.10584 -0.42333,0.0353 -0.74083,0.3175 -0.3175,0.3175 -0.84667,0.45861 -1.30527,0.35277 -0.9525,-0.24694 -4.05696,1.05834 -4.05696,1.69334 0,0.24694 -0.35277,0.74083 -0.7761,1.16416 -1.27,1.09362 -2.29307,2.43417 -2.57527,3.24556 -0.10584,0.38806 -0.59973,1.02306 -1.09363,1.41111 -0.49387,0.38806 -0.84667,1.02306 -0.84667,1.55222 0,0.45861 -0.35277,1.41111 -0.81137,2.08139 -1.05833,1.51695 -2.5753,4.7625 -2.92806,6.10306 -0.14111,0.59972 -0.35277,1.19944 -0.45861,1.41111 -0.14113,0.17639 -0.24696,0.77611 -0.21166,1.30528 0,0.56444 -0.0706,0.98777 -0.1764,0.98777 -0.56444,0 -1.97557,3.81 -1.79917,4.86834 0.0353,0.28222 -0.10583,0.67027 -0.28223,0.91722 -0.21167,0.24694 -0.38804,0.84667 -0.38804,1.30528 0,0.98777 -0.21166,3.35139 -0.67029,7.02027 -0.17637,1.44639 -0.24694,2.75167 -0.17637,2.89278 0.10583,0.14111 -0.0353,0.35278 -0.24697,0.45861 -0.21166,0.14111 -0.24693,0.49389 -0.10583,0.84667 0.24696,0.52917 0.635,4.90361 0.9878,11.67694 0.10583,1.65806 0.2822,3.77473 0.38803,4.7625 0.10584,0.9525 0.24697,2.78695 0.3528,4.05695 0.0705,1.27 0.3175,2.92805 0.52917,3.70416 0.21166,0.77612 0.4586,1.86973 0.56443,2.46945 0.4586,3.21028 1.27,6.73805 1.55223,7.02028 0.21167,0.21166 0.35277,0.635 0.35277,0.98777 0,0.35278 0.38807,1.44639 0.88194,2.39889 0.4939,0.98778 0.8114,1.76389 0.67029,1.76389 -0.10583,0 0.10584,0.52917 0.49387,1.12889 0.38807,0.635 0.59974,1.37583 0.52917,1.62278 -0.10583,0.24694 0,0.67028 0.21167,0.91722 0.24696,0.28222 1.05833,1.72861 1.83446,3.24556 0.81137,1.55222 1.905,3.175 2.43417,3.66888 0.52916,0.49389 1.30527,1.62278 1.7286,2.50473 0.38806,0.88194 1.19943,2.15194 1.79917,2.78694 0.56443,0.635 1.12889,1.41111 1.23473,1.72861 0.10583,0.3175 1.62277,1.905 3.35137,3.52778 1.7639,1.62278 3.175,3.24556 3.175,3.56306 0,0.35277 0.635,1.05833 1.41113,1.5875 0.7761,0.52916 1.4111,1.09361 1.4111,1.19944 0,0.24694 1.905,2.54 4.51556,5.36222 0.81137,0.88195 1.48167,1.83445 1.48167,2.08139 0,0.49389 1.16417,2.64583 2.9986,5.46806 0.635,0.9525 1.23473,2.29305 1.37584,2.96333 0.10583,0.67028 0.59973,1.72861 1.0936,2.36361 0.4939,0.635 0.88196,1.37583 0.88196,1.65806 0,0.24694 0.38804,1.27 0.88194,2.2225 0.49389,0.9525 1.05833,2.68111 1.27,3.81 0.21166,1.16416 0.67026,2.68111 1.02306,3.35138 0.9525,1.79917 1.12887,2.43417 1.27,4.62139 0.17637,2.54001 0.1411,6.73807 -0.0353,7.05557 -0.0705,0.10583 0,1.12887 0.14113,2.2225 0.21167,1.51694 0.14111,2.11667 -0.21166,2.39887 -0.24697,0.21167 -0.45863,0.91723 -0.45863,1.55223 0,0.59973 -0.10584,1.23473 -0.24694,1.37584 -0.1411,0.10583 -0.3175,0.9525 -0.38806,1.86973 -0.0705,0.9172 -0.52917,2.6811 -0.98777,3.9511 -0.4939,1.27 -1.1289,3.10444 -1.4464,4.09223 -0.635,2.11667 -2.75167,6.38527 -3.3161,6.70277 -0.21167,0.1411 -0.67027,0.88194 -0.98777,1.62277 -1.1289,2.46946 -6.45583,7.33779 -9.0664,8.255 -0.59973,0.1764 -1.37583,0.635 -1.69333,0.98779 -0.35277,0.3175 -0.7761,0.59971 -0.98777,0.59971 -0.21167,0 -1.19946,0.38806 -2.18723,0.88196 -0.98777,0.4586 -2.50473,0.91721 -3.38667,0.9525 -0.88193,0.0705 -1.7639,0.28221 -2.01083,0.49387 -0.67027,0.635 -2.57527,0.14113 -2.9986,-0.7761 -0.21167,-0.4586 -0.4939,-0.74083 -0.6703,-0.67027 -0.1411,0.10583 -0.4586,-0.0353 -0.74083,-0.28223 -0.28221,-0.3175 -0.74084,-0.38806 -1.16417,-0.21167 -1.19943,0.45861 -2.64583,0.35277 -2.8575,-0.21166 -0.1411,-0.28223 -0.38804,-0.52917 -0.56443,-0.52917 -0.21167,0 -1.30527,-0.635 -2.46944,-1.4111 -2.3989,-1.5875 -2.61056,-1.65807 -3.5278,-0.8114 -0.42333,0.38806 -0.7761,0.4586 -0.98776,0.24694 -0.21167,-0.21167 -0.84667,-0.3175 -1.41111,-0.21167 -0.88196,0.14113 -1.05833,0.3175 -1.05833,1.09363 0,1.0936 0.67027,1.79916 3.59833,3.66887 1.09361,0.70556 2.36361,1.72863 2.82221,2.25779 0.45863,0.56444 1.19946,1.19944 1.65806,1.44638 0.91723,0.52916 2.15194,0.24696 2.15194,-0.45861 0,-0.28223 0.1764,-0.59973 0.38806,-0.74083 0.42334,-0.24694 1.19944,0.38806 1.19944,1.02306 0,0.52917 4.37446,0.42334 7.05556,-0.14112 4.16277,-0.91721 10.16,-3.28084 13.22917,-5.25638 0.28223,-0.21166 0.84667,-0.49389 1.23473,-0.67029 1.4111,-0.635 7.7611,-7.26721 8.46667,-8.85471 0.38803,-0.88196 0.88193,-1.76389 1.0936,-1.94029 0.635,-0.56444 2.29306,-4.1275 2.32833,-5.00944 0.0353,-0.1411 0.28223,-0.4586 0.635,-0.70556 0.35277,-0.24694 0.7761,-1.34054 1.05834,-2.64583 0.21166,-1.23471 0.59973,-2.54 0.81139,-2.92804 0.21167,-0.38807 0.35277,-0.91723 0.28221,-1.16417 -0.0353,-0.28223 0.10583,-0.67029 0.3175,-0.9525 0.38806,-0.45863 0.88196,-2.8575 1.34056,-6.35 0.21167,-1.62279 0.24694,-7.51417 0.10584,-11.04196 -0.0353,-0.81138 -0.38807,-2.96333 -0.8114,-4.7625 -0.38804,-1.76388 -0.81137,-3.91583 -0.88194,-4.72722 -0.10583,-0.81139 -0.38806,-1.65805 -0.67027,-1.905 -0.28223,-0.21166 -0.49389,-0.635 -0.49389,-0.91722 0,-0.28222 -0.1764,-0.84667 -0.42334,-1.27 -0.24693,-0.42333 -0.4586,-1.09361 -0.52916,-1.48167 -0.0706,-0.35277 -0.74084,-1.83444 -1.51694,-3.24555 -0.77613,-1.37583 -1.41113,-2.75167 -1.41113,-3.03389 0,-0.28222 -0.2822,-0.74083 -0.5997,-0.98778 -0.3175,-0.28222 -1.3053,-2.01083 -2.18723,-3.84528 -1.55224,-3.21027 -1.97557,-3.88055 -3.81,-5.78555 -0.45861,-0.45861 -0.8114,-0.9525 -0.8114,-1.16417 0,-0.24694 -3.24554,-3.88055 -5.96194,-6.63222 -0.38806,-0.42333 -0.8114,-1.16417 -0.91723,-1.65806 -0.17637,-0.635 -0.84667,-1.34055 -1.94027,-2.04611 -1.86973,-1.19944 -4.09223,-3.45722 -5.11527,-5.22111 -0.38806,-0.59972 -0.81139,-1.12889 -0.9525,-1.12889 -0.14113,0 -0.28223,-0.28222 -0.28223,-0.67027 0,-0.35278 -0.635,-1.37584 -1.4111,-2.25778 -1.37583,-1.55222 -6.94973,-12.80583 -6.56167,-13.19389 0.10584,-0.10583 -0.14113,-0.52917 -0.52916,-0.9525 -0.38807,-0.38806 -0.635,-1.02306 -0.52917,-1.34056 0.0705,-0.35277 0.0353,-0.635 -0.10583,-0.635 -0.14113,0 -0.28223,-0.21166 -0.3175,-0.45861 -0.0706,-0.74083 -0.45863,-2.50472 -0.6703,-3.06916 -0.1411,-0.28223 -0.21167,-0.635 -0.17637,-0.77611 0.0353,-0.14112 -0.10583,-1.27 -0.3175,-2.46945 -0.3528,-2.08139 -0.84667,-6.10305 -1.16417,-9.27805 -0.0706,-0.77612 -0.3175,-2.54 -0.52916,-3.88056 -0.74084,-4.48028 -0.88197,-16.43944 -0.24697,-20.70805 0.59974,-3.91584 1.69334,-8.00806 3.0339,-11.39473 0.1411,-0.38805 0.52917,-1.5875 0.84667,-2.64583 0.3175,-1.05833 1.02306,-2.68111 1.55223,-3.59833 0.52917,-0.91722 1.5875,-2.71639 2.32833,-3.98639 2.32834,-3.98639 5.18584,-6.10306 8.5725,-6.35 0.635,-0.0353 1.34054,-0.24695 1.5875,-0.42333 0.24694,-0.21167 1.5875,-0.56445 2.92804,-0.77612 8.36083,-1.27 11.7475,-1.44638 13.58196,-0.635 0.67027,0.28223 1.94027,0.81139 2.82221,1.16417 0.88196,0.35278 1.72863,0.84667 1.86973,1.09361 0.1411,0.24695 0.4939,0.45861 0.7761,0.45861 0.28223,0 1.05833,0.49389 1.7639,1.09361 1.05833,0.91723 1.4464,1.09362 2.46943,0.91723 2.2578,-0.35278 2.96334,-1.97556 1.51697,-3.31611 -0.45863,-0.38806 -1.19947,-0.84667 -1.65807,-0.98778 -1.16416,-0.35278 -3.21027,-1.5875 -3.21027,-1.94028 0,-0.17639 -0.52916,-0.42333 -1.12889,-0.52917 -0.635,-0.14111 -1.79917,-0.56444 -2.57527,-0.98777 -1.23473,-0.59973 -1.7639,-0.67028 -4.9389,-0.45862 -3.77473,0.28223 -6.35,0.28223 -7.26723,0.0353 -0.28221,-0.10583 -0.635,-0.0706 -0.7761,0.0353 z"
           id="path9472" />
        <path
           style="stroke-width:0.03527778"
           inkscape:connector-curvature="0"
           d="m -454.44344,-300.65654 c -1.09363,0.52917 -1.27,0.77611 -1.44639,2.29306 -0.10584,0.9525 -0.0706,2.08139 0.10583,2.54 0.1411,0.45861 0.35277,1.86972 0.42333,3.13972 0.0706,1.27 0.3175,2.46944 0.52917,2.68111 0.21167,0.21167 0.38806,0.74083 0.38806,1.16417 0,0.45861 0.14111,0.88194 0.28221,0.98778 0.1764,0.10583 0.28223,1.05833 0.24696,2.15194 -0.0353,1.05833 0.0353,1.94028 0.17637,1.94028 0.4939,0 1.41113,3.84527 1.41113,5.85611 0,1.16416 0.24694,2.99861 0.49387,4.05694 0.28223,1.09361 0.52917,2.29306 0.52917,2.64584 0.0353,1.16416 0.38806,6.63222 0.4939,7.54944 0.0706,0.49389 0.3175,1.23472 0.56443,1.69333 0.24696,0.45861 0.3528,1.05834 0.24696,1.34056 -0.10583,0.28222 0.0705,1.51694 0.38804,2.71639 0.3175,1.19944 0.52917,2.82222 0.4939,3.56305 0,0.77611 0.1764,1.72861 0.4586,2.15195 0.4939,0.74083 1.05833,2.82222 1.6228,5.96194 0.17637,0.9525 0.70553,2.54 1.19943,3.52778 0.4939,0.98778 0.98777,2.25778 1.1289,2.78694 0.10583,0.56445 0.67027,1.83445 1.2347,2.82223 0.56447,1.02305 1.02307,2.08138 1.02307,2.39888 0,0.28223 0.1764,0.70556 0.38806,0.91723 0.45861,0.45861 2.08137,4.30389 2.08137,4.93889 0,0.24694 0.3528,0.81138 0.8114,1.30527 0.42334,0.45861 1.34057,2.18723 1.97557,3.81 0.67027,1.5875 1.34053,3.06917 1.51693,3.24556 0.1411,0.21167 0.28223,0.67028 0.28223,1.05833 0.0353,1.94028 2.64584,7.12611 4.62137,9.06639 0.84667,0.84667 2.32834,1.94028 3.28084,2.43417 0.9525,0.49389 2.0814,1.09361 2.54,1.34055 1.16416,0.635 4.6214,1.19945 5.8914,0.9525 1.12889,-0.21166 2.25776,-0.56444 3.59833,-1.09361 0.38806,-0.14111 0.88193,-0.28222 1.05833,-0.3175 0.21167,0 0.74084,-0.28222 1.23473,-0.56444 4.19804,-2.64584 5.57387,-3.42195 5.75027,-3.28084 0.52917,0.56445 5.8914,-4.55083 5.8914,-5.60916 0,-0.3175 0.17637,-0.67028 0.35277,-0.77611 0.52917,-0.3175 4.3039,-7.97278 4.09223,-8.21973 -0.10583,-0.10583 -0.0353,-0.35277 0.1411,-0.59972 0.1764,-0.21166 0.38807,-0.70555 0.4586,-1.09361 0.0706,-0.35278 0.28224,-1.05833 0.4939,-1.55222 0.88194,-2.08139 1.5875,-5.25639 2.0461,-9.06639 0.14113,-1.02306 0.3528,-1.94028 0.52917,-2.04611 0.24696,-0.14111 0.70557,3.84528 0.70557,6.31472 0.0353,0.56445 0.17639,1.27 0.35276,1.62278 0.1764,0.3175 0.38807,0.98778 0.4939,1.44639 0.0706,0.45861 0.70557,2.46944 1.41111,4.445 0.70556,1.97555 1.26999,3.91583 1.26999,4.26861 0,0.35278 0.3175,0.9525 0.70557,1.30528 0.42333,0.38805 0.70556,1.09361 0.70556,1.76389 0,1.23472 0.70554,2.99861 1.23471,2.99861 0.21166,0.0353 0.74083,0.81139 1.19946,1.79916 0.84667,1.69334 3.6336,4.62139 5.89137,6.17361 0.59973,0.42334 1.9403,0.9525 2.99863,1.23473 1.05833,0.24694 2.08137,0.56444 2.25777,0.67027 0.42333,0.28223 4.5861,-0.14111 7.05556,-0.70555 0.98777,-0.21167 2.15194,-0.42334 2.64584,-0.45861 0.49387,-0.0353 0.98777,-0.21167 1.0936,-0.35278 0.10583,-0.17639 1.51693,-0.84667 3.10443,-1.48167 3.95113,-1.62278 12.3825,-8.29027 12.3825,-9.80722 0,-0.3175 0.21167,-0.70555 0.45861,-0.84667 0.21166,-0.14111 0.42333,-0.45861 0.42333,-0.635 0.0353,-0.21166 0.3528,-1.05833 0.77613,-1.94027 0.42333,-0.88195 1.02304,-2.54 1.34054,-3.70417 0.3175,-1.16417 0.81139,-2.75167 1.05833,-3.52778 0.28223,-0.77611 0.59973,-2.2225 0.70556,-3.175 0.14111,-0.98778 0.3175,-2.01083 0.42334,-2.29305 0.35277,-0.84667 0.38806,-1.05834 0.98777,-4.93889 0.3175,-2.04611 0.98779,-5.22111 1.48166,-7.05556 0.52917,-2.01083 0.9525,-4.62139 1.02307,-6.52639 0.0706,-1.76388 0.35277,-4.1275 0.635,-5.25638 0.28223,-1.16417 0.42333,-2.29306 0.3175,-2.57528 -0.10584,-0.24695 0,-0.70556 0.24693,-0.98778 0.24697,-0.28222 0.3175,-0.91722 0.21167,-1.48167 -0.1411,-0.52916 0.0353,-2.11666 0.3528,-3.45722 0.2822,-1.37583 0.5997,-4.05694 0.67026,-5.99722 0.0706,-1.94028 0.21167,-4.16278 0.3175,-4.93889 0.1764,-1.27 0.24694,-13.82889 0.10584,-17.81528 -0.0353,-0.88194 0.0353,-1.97555 0.1764,-2.46944 0.35277,-1.19945 -0.0706,-1.76389 -1.5875,-2.11667 -2.29307,-0.49389 -2.3989,-0.24694 -2.01084,6.10306 0.21167,3.06916 0.28221,6.70278 0.17637,8.11389 -0.35276,5.04472 -1.5875,17.78 -1.97553,20.0025 -0.21167,1.27 -0.3528,2.99861 -0.3175,3.88055 0,0.88195 -0.24697,3.175 -0.52917,5.11528 -0.3175,1.94028 -0.635,4.16278 -0.6703,4.93889 -0.1411,1.5875 -0.70553,4.62139 -1.48166,7.62 -0.28221,1.05833 -0.56444,2.89277 -0.635,4.05694 -0.0705,1.12889 -0.28221,2.50472 -0.49387,2.99861 -0.42334,1.05834 -0.84667,2.61056 -1.69334,6.49111 -0.35279,1.55223 -0.8114,3.13973 -1.05833,3.52778 -0.24696,0.38806 -0.56446,1.34056 -0.70557,2.08139 -0.1411,0.74083 -0.56443,1.94028 -0.98776,2.64583 -2.04611,3.45723 -2.92807,4.62139 -3.52777,4.83306 -0.3528,0.10583 -1.41113,0.9525 -2.32834,1.86972 -1.65806,1.5875 -4.51556,3.56306 -5.18583,3.56306 -0.1764,0 -0.9878,0.3175 -1.79917,0.70555 -0.77612,0.38806 -1.83446,0.70556 -2.29306,0.70556 -0.4939,0 -1.5875,0.3175 -2.46944,0.70555 -1.37583,0.635 -2.04613,0.70556 -4.55083,0.49389 -1.6228,-0.10583 -3.06917,-0.42333 -3.28083,-0.67028 -0.1764,-0.21166 -0.8114,-0.52916 -1.37584,-0.67027 -0.9525,-0.24695 -4.79779,-3.77473 -4.79779,-4.40973 0,-0.14111 -0.4586,-0.88194 -1.02304,-1.65805 -0.56446,-0.74083 -1.02306,-1.48167 -1.05833,-1.65806 0,-0.14111 -0.24697,-0.77611 -0.52917,-1.44639 -0.24696,-0.635 -0.59973,-1.69333 -0.74083,-2.36361 -0.38807,-1.94027 -1.3053,-4.55083 -1.55223,-4.55083 -0.14111,0 -0.24694,-0.35278 -0.28224,-0.74083 -0.0705,-1.02306 -1.19943,-4.62139 -1.5875,-5.15056 -0.42333,-0.56444 -1.0936,-4.51555 -1.16416,-6.80861 -0.0353,-2.11667 -0.42334,-3.56306 -1.02304,-3.95111 -0.6703,-0.45861 -1.97556,-0.3175 -2.18723,0.24694 -0.1411,0.35278 -0.56444,0.49389 -1.37583,0.38806 -1.23474,-0.17639 -2.25777,0.35278 -2.43417,1.19944 -0.0706,0.28223 -0.21167,0.77611 -0.35277,1.09361 -0.14113,0.3175 -0.21167,0.70556 -0.1764,0.88195 0.0706,0.17639 -0.0706,0.9525 -0.28223,1.72861 -0.42333,1.48167 -0.9525,4.55083 -0.98777,5.46806 0,0.28222 -0.28223,0.81138 -0.59973,1.19944 -0.3175,0.35278 -0.49387,0.88194 -0.38804,1.12889 0.10584,0.28222 0.0353,0.70555 -0.14113,0.9525 -0.17637,0.21167 -0.635,1.37583 -0.98776,2.54 -0.3175,1.16417 -1.05834,2.96333 -1.62277,4.02167 -0.56447,1.05833 -1.02307,2.15194 -1.02307,2.39888 0,0.49389 -0.28223,0.91723 -1.48166,2.25778 -0.35277,0.35278 -0.635,0.81139 -0.635,0.98778 0,0.17639 -0.35277,0.52917 -0.8114,0.84667 -0.81137,0.52916 -1.76387,1.27 -4.16277,3.35139 -0.74083,0.67027 -1.51694,1.09361 -1.7286,0.95249 -0.1764,-0.10583 -0.3528,-0.0706 -0.3528,0.10584 0,0.14111 -1.2347,0.77611 -2.71637,1.37583 -4.51556,1.79917 -5.00946,1.94028 -6.0678,1.37583 -0.49387,-0.24694 -1.5522,-0.67027 -2.32833,-0.91722 -2.11667,-0.67028 -3.9511,-1.97555 -4.93887,-3.45722 -0.4939,-0.70555 -1.37583,-1.94028 -1.9403,-2.68111 -0.5997,-0.81139 -1.05833,-1.79917 -1.05833,-2.39889 0,-0.56444 -0.3175,-1.62278 -0.70554,-2.36361 -0.84666,-1.72861 -1.76389,-4.26861 -1.76389,-5.04472 0,-0.3175 -0.14111,-0.635 -0.3175,-0.70556 -0.35277,-0.14111 -3.52777,-6.6675 -3.73944,-7.62 -0.0706,-0.35278 -0.45863,-1.19944 -0.84667,-1.86972 -0.42333,-0.67028 -0.74083,-1.41111 -0.74083,-1.69333 0,-0.24695 -0.3528,-0.88195 -0.8114,-1.41111 -0.88193,-1.05834 -2.0461,-4.55084 -3.9511,-11.7475 -1.05833,-4.16278 -1.86973,-8.53723 -2.36363,-12.80584 -0.17637,-1.76389 -0.42333,-3.42194 -0.52917,-3.70416 -0.10583,-0.28223 -0.21166,-1.65806 -0.24693,-2.99861 -0.0353,-1.37584 -0.28223,-2.8575 -0.52917,-3.31612 -0.28223,-0.45861 -0.38806,-1.41111 -0.28223,-2.15194 0.0706,-0.70556 0.0353,-1.55222 -0.1411,-1.86972 -0.1764,-0.28222 -0.38807,-1.30528 -0.4939,-2.25778 -0.21167,-2.50472 -0.3175,-3.06917 -0.67027,-3.31611 -0.28223,-0.24694 -0.8114,-2.64583 -1.0936,-5.25639 -0.10583,-0.67028 -0.3175,-1.83444 -0.4939,-2.57528 -0.1764,-0.70555 -0.24693,-1.30527 -0.1411,-1.30527 0.10583,0 0.0353,-0.21167 -0.10583,-0.45862 -0.1764,-0.21166 -0.3175,-1.94027 -0.28223,-3.81 0,-3.06916 -0.0353,-3.38666 -0.70557,-3.70416 -0.52917,-0.24695 -1.0936,-0.17639 -1.97554,0.24694 z"
           id="path9474" />
        <path
           style="stroke-width:0.03527778"
           inkscape:connector-curvature="0"
           d="m -672.46011,-300.02154 c -0.28222,0.17639 -0.59972,0.28222 -0.74083,0.21167 -0.10583,-0.10583 -0.67028,0.24694 -1.23472,0.77611 -0.59973,0.56444 -1.79917,1.12889 -2.96334,1.41111 -3.45722,0.77611 -5.29166,1.37583 -5.715,1.79917 -0.24694,0.24694 -0.70555,0.42333 -1.02305,0.42333 -0.3175,0 -0.81139,0.24695 -1.05834,0.56445 -0.24694,0.3175 -1.30527,1.09361 -2.29305,1.72861 -1.23472,0.77611 -2.18722,1.76389 -2.82222,2.89277 -0.52917,0.91723 -1.16417,1.94028 -1.41111,2.2225 -0.67028,0.81139 -1.97556,4.51556 -1.72862,4.93889 0.10584,0.17639 0.0353,0.35278 -0.14111,0.35278 -0.21166,0 -0.38805,0.21167 -0.38805,0.49389 0,0.28222 -0.21167,0.74083 -0.42334,0.98778 -0.28222,0.28222 -0.45861,1.55222 -0.45861,3.45722 0,1.65805 -0.0706,3.77472 -0.10583,4.7625 -0.21167,3.31611 0.21167,5.92667 1.30528,8.36083 0.56444,1.34056 0.9525,2.39889 0.84666,2.39889 -0.14111,0 0.10584,0.35278 0.49389,0.77611 0.9525,1.05834 1.51695,2.18722 1.51695,3.06917 0,0.42333 0.14111,0.74083 0.35278,0.74083 0.17638,0 0.59972,0.52917 0.91722,1.12889 0.59972,1.19945 5.00944,5.92667 5.53861,5.92667 0.17639,0 1.44639,1.23472 2.82222,2.71639 1.41111,1.51694 4.16278,4.33916 6.17361,6.27944 1.97556,1.94028 3.59834,3.70417 3.59834,3.95111 0,0.24695 0.3175,0.59972 0.70555,0.81139 0.38806,0.21167 1.72861,2.50472 3.03389,5.22111 l 2.36361,4.83306 0.0353,6.17361 c 0,6.17361 -0.10583,8.11389 -0.56445,8.11389 -0.10583,0 -0.42333,0.84666 -0.635,1.83444 -0.24694,1.02306 -0.70555,2.32833 -1.02305,2.92806 -0.3175,0.56444 -0.56445,1.23472 -0.56445,1.41111 0,0.21166 -0.35277,0.88194 -0.81138,1.48166 -0.42334,0.59973 -0.77612,1.23473 -0.77612,1.37584 0,0.42333 -3.10444,3.24555 -4.58611,4.19805 -0.67027,0.42334 -1.44639,0.70556 -1.65805,0.635 -0.24695,-0.10583 -0.91722,0.17639 -1.51695,0.59972 -0.81139,0.56445 -1.41111,0.74084 -2.2225,0.56445 -3.91583,-0.67028 -4.7625,-0.84667 -5.60916,-1.19945 -0.56445,-0.21166 -0.98778,-0.3175 -0.98778,-0.21166 0,0.14111 -0.38806,-0.0353 -0.88195,-0.35278 -0.45861,-0.3175 -1.19944,-0.56444 -1.5875,-0.56444 -0.98777,0 -2.82222,0.98777 -2.82222,1.51694 0.0353,0.59972 2.75167,2.46944 3.31611,2.25778 0.28223,-0.10584 0.84667,0.21166 1.30528,0.70555 0.45861,0.49389 1.19945,1.02306 1.65806,1.19945 0.42333,0.17639 0.77611,0.52916 0.77611,0.84666 0,0.59973 0.88194,0.74084 1.23472,0.17639 0.10583,-0.21166 0.49389,-0.35277 0.84667,-0.35277 0.35277,0 1.05833,-0.3175 1.55222,-0.70556 0.52917,-0.42333 1.37583,-0.70556 2.08139,-0.67028 1.72861,0.0353 4.72722,-0.91722 6.38528,-2.04611 4.16277,-2.82222 8.00805,-8.14917 8.5725,-11.85333 0.14111,-0.81139 0.45861,-1.72861 0.70555,-2.04611 0.81139,-0.91723 1.19945,-4.05695 1.19945,-9.63084 -0.0353,-5.32694 -0.42334,-8.18444 -1.48167,-10.26583 -0.3175,-0.59972 -0.74083,-1.65805 -0.98778,-2.39889 -0.56444,-1.83444 -4.26861,-7.3025 -5.85611,-8.67833 -0.67028,-0.59972 -2.01083,-2.01083 -2.92806,-3.13972 -0.91722,-1.09361 -3.88055,-4.23334 -6.59694,-6.985 -6.0325,-6.06778 -7.02028,-7.3025 -8.60778,-10.68917 -0.70555,-1.48167 -1.55222,-3.24555 -1.94028,-3.91583 -0.81138,-1.51695 -0.84666,-1.65806 -0.88194,-6.985 -0.0353,-4.90361 0.45861,-7.97278 1.5875,-10.30111 0.42333,-0.88195 0.88194,-1.97556 0.98778,-2.46945 0.49389,-1.97555 4.19805,-5.57389 6.77333,-6.56166 0.59972,-0.24695 3.21028,-1.30528 5.82083,-2.39889 4.09223,-1.69334 5.08,-1.97556 7.02028,-1.97556 3.95111,0 8.85472,1.05834 10.795,2.32834 0.56445,0.38805 1.19945,0.49388 1.94028,0.3175 1.19944,-0.28223 1.30528,-0.56445 0.45861,-1.30528 -2.29305,-1.905 -6.56167,-3.28084 -11.7475,-3.77472 -1.65805,-0.17639 -3.31611,-0.42334 -3.70417,-0.52917 -0.38805,-0.10583 -0.9525,-0.0706 -1.23472,0.10583 z"
           id="path9476" />
        <path
           style="stroke-width:0.03527778"
           inkscape:connector-curvature="0"
           d="m -109.32391,-318.95087 c -0.56443,0.21167 -0.98777,0.56445 -0.98777,0.81139 0,0.9525 1.62277,2.29306 3.175,2.64584 1.69334,0.38805 5.8914,2.39888 7.09084,3.38666 2.434157,2.08139 3.563057,3.42195 3.421927,4.1275 -0.10583,0.42334 0.0353,0.9525 0.28223,1.19945 0.59974,0.56444 0.9525,3.77472 0.70557,6.27944 -0.10583,1.16417 -0.21167,2.46945 -0.24696,2.96333 -0.0705,1.72862 -3.73944,8.60778 -6.103037,11.35945 -2.68113,3.13972 -3.6689,3.88055 -6.2089,4.7625 -1.79917,0.635 -1.905,0.74083 -2.0461,1.94028 -0.10584,1.02305 0.0353,1.37583 0.635,1.69333 1.05833,0.56444 4.05693,0.10583 5.0447,-0.77611 0.42334,-0.38806 0.52917,-0.59972 0.24697,-0.45861 -0.28224,0.14111 -0.21167,-0.0353 0.17637,-0.3175 0.38806,-0.3175 1.16416,-0.91723 1.69333,-1.37584 1.16417,-0.91722 5.362227,-5.89138 5.362227,-6.35 0,-0.17638 0.24694,-0.49388 0.52917,-0.70555 0.56443,-0.45861 2.32833,-3.91583 3.9511,-7.83167 2.29306,-5.50333 0.8114,-13.75833 -3.1397,-17.74472 -2.0814,-2.08139 -7.196667,-5.15055 -9.101667,-5.46805 -3.0339,-0.52917 -3.56307,-0.52917 -4.4803,-0.14112 z"
           id="path9478" />
        <path
           style="stroke-width:0.03527778"
           inkscape:connector-curvature="0"
           d="m -107.66584,-243.20948 c -0.88194,0.9525 -0.45861,1.69333 1.48166,2.50472 3.52777,1.44639 5.53861,2.68111 7.126107,4.30389 2.25779,2.36361 3.38666,3.56306 3.42196,3.77472 0,0.10584 0.17637,0.56445 0.38804,1.05834 0.21166,0.49389 0.56446,1.34055 0.81139,1.94027 0.4939,1.27 1.02307,8.39612 0.635,8.64306 -0.1411,0.10583 -0.3175,0.77611 -0.42333,1.51694 -0.24694,2.01084 -2.11667,5.715 -4.445,8.89 -0.28223,0.38806 -1.446397,1.62278 -2.575267,2.75167 -1.79917,1.83444 -2.15196,2.04611 -3.06917,1.83444 -0.635,-0.14111 -1.41112,0 -2.08139,0.35278 -0.91723,0.45861 -1.09361,0.77611 -1.09361,1.76389 0,1.12889 0.17638,1.30528 1.55221,2.01083 l 1.51696,0.74084 2.43417,-1.72861 c 3.915827,-2.82223 7.337767,-6.77334 8.713597,-10.01889 0.28223,-0.70556 0.70556,-1.48167 0.98777,-1.76389 0.70556,-0.74083 1.79917,-4.1275 1.905,-5.89139 0.0706,-0.81139 0.21167,-1.62278 0.3175,-1.83444 0.14113,-0.21167 0.21167,-1.69334 0.1764,-3.28084 -0.0706,-2.36361 -0.3175,-3.45722 -1.27,-5.715 -0.59973,-1.51694 -1.41111,-3.175 -1.7639,-3.63361 -0.35277,-0.49389 -0.88194,-1.23472 -1.16417,-1.65805 -0.88193,-1.27 -3.9511,-3.91584 -5.997197,-5.11528 -3.63363,-2.2225 -6.42057,-2.75167 -7.58473,-1.44639 z"
           id="path9480" />
        <path
           style="stroke-width:0.03527778"
           inkscape:connector-curvature="0"
           d="m -107.03084,-165.5631 c -0.24694,0.24696 -0.45861,0.74084 -0.45861,1.09363 0,0.49387 0.28221,0.635 1.16417,0.635 0.70554,0 1.65804,0.35277 2.3636,0.88194 0.67027,0.49389 1.4464,0.88193 1.7639,0.88193 1.12887,0 5.644437,3.38667 5.644437,4.23334 0,0.17639 0.28223,0.49389 0.67027,0.67029 0.35279,0.21167 0.74083,0.74083 0.84666,1.16417 0.0706,0.4586 0.42334,1.76387 0.74084,2.92804 0.91723,3.175 1.09362,4.86833 1.05833,9.38389 -0.0705,4.3039 -0.74083,7.4789 -1.83444,8.32557 -0.3175,0.24693 -0.4586,0.56443 -0.3175,0.67027 0.70557,0.70556 -3.98639,6.24416 -5.432767,6.42056 -1.05833,0.10583 -2.15196,1.37583 -2.01083,2.32833 0.1411,1.02304 1.69333,1.79917 2.963327,1.48167 0.635,-0.1764 2.2225,-1.51696 4.19804,-3.56306 2.92807,-2.99861 3.31613,-3.52777 4.51557,-6.56167 1.79916,-4.6214 2.57527,-11.53583 1.69333,-15.66333 -0.67027,-2.99861 -2.2225,-7.4789 -3.13973,-8.96057 -1.02304,-1.69333 -3.56304,-3.66887 -6.91444,-5.3622 -2.398887,-1.27 -6.738057,-1.79917 -7.514157,-0.9878 z"
           id="path9482" />
        <path
           style="stroke-width:0.03527778"
           inkscape:connector-curvature="0"
           d="m -102.55057,-90.527262 c -2.04611,0.81139 -2.2225,1.62276 -0.45861,2.3636 0.74084,0.3175 1.65807,0.4939 2.04611,0.38806 2.363617,-0.59973 8.784157,2.43417 10.794997,5.08 0.45862,0.59973 1.19946,1.48167 1.62279,1.905 0.67027,0.67027 0.81137,1.23473 0.84667,3.59834 0.0353,3.175 -0.38807,6.70276 -0.9878,7.72583 -0.24693,0.38806 -1.05833,2.0461 -1.83443,3.70417 -0.8114,1.65806 -1.905,3.4925 -2.43417,4.09223 -0.56444,0.5997 -1.34056,1.51693 -1.7639,2.0461 -0.74083,0.9525 -3.03387,2.6811 -3.52777,2.6811 -0.49389,0 -2.539997,2.32833 -2.539997,2.8575 0,0.91723 0.811397,1.37583 2.398897,1.37583 1.48167,0 1.69333,-0.1411 5.3975,-3.7747 2.11667,-2.04613 3.84527,-4.02167 3.84527,-4.33917 0,-0.35279 0.24694,-0.81139 0.56444,-1.09363 1.02306,-0.84666 3.38666,-6.06776 4.19806,-9.2075 1.5875,-6.3147 0.7761,-10.01887 -3.13973,-14.2875 -2.08137,-2.25776 -5.29167,-4.19803 -8.3961,-5.00943 -3.28084,-0.88194 -4.515567,-0.88194 -6.632227,-0.10583 z"
           id="path9486" />
        <path
           style="stroke-width:0.03527778"
           inkscape:connector-curvature="0"
           d="m -595.45165,-89.363102 c -0.3528,0.1764 -1.3053,0.38807 -2.11667,0.42334 -0.88196,0.0706 -2.64583,0.67026 -4.16279,1.4111 -1.44637,0.70556 -3.03387,1.34056 -3.52777,1.4464 -1.0936,0.21166 -7.26723,6.24416 -6.8439,6.6675 0.0706,0.0706 -0.35277,1.23473 -0.9172,2.64583 -0.56447,1.37583 -1.1289,3.13973 -1.27,3.84527 -0.14113,0.74083 -0.3528,1.48166 -0.4939,1.69333 -0.42333,0.4939 -0.1764,7.09083 0.28223,9.10167 0.5997,2.54 1.48167,4.9389 2.01083,5.53863 0.24694,0.2822 1.09361,1.83443 1.86971,3.38666 0.8114,1.5875 1.69333,2.96334 2.01083,3.06917 0.28223,0.1411 0.70557,0.635 0.88196,1.12887 0.38804,1.02307 4.33917,3.06917 6.17361,3.2103 1.7286,0.1411 4.02166,0.70553 4.55083,1.16416 0.42333,0.35277 0.74083,0.35277 1.51693,-0.0353 0.8114,-0.38804 0.9878,-0.74084 1.05834,-1.79917 0.0706,-1.0936 -0.0353,-1.30527 -0.635,-1.30527 -0.38804,0 -1.05834,-0.1764 -1.44637,-0.38806 -0.42334,-0.21167 -1.41113,-0.42334 -2.2578,-0.49387 -0.81137,-0.0353 -2.2225,-0.45863 -3.10443,-0.91723 -1.83444,-0.91724 -5.50334,-4.6214 -5.50334,-5.60917 0,-0.3175 -0.24693,-0.8114 -0.52916,-1.05833 -0.28224,-0.24694 -0.70557,-1.09361 -0.91724,-1.905 -0.21166,-0.77611 -0.5997,-1.69334 -0.84666,-1.97557 -0.24694,-0.2822 -0.74084,-2.1872 -1.0936,-4.23333 -0.56444,-3.4925 -0.56444,-3.84527 0.0353,-6.87917 0.77613,-3.98637 2.8575,-8.46667 4.65667,-10.05417 0.70557,-0.635 1.97557,-1.44637 2.82223,-1.83443 0.84667,-0.35277 1.51694,-0.7761 1.51694,-0.91723 0,-0.38804 3.56306,-2.11667 5.29166,-2.54 2.43417,-0.59971 3.63363,-1.12887 4.3039,-1.94027 0.42334,-0.4939 0.4586,-0.7761 0.1764,-0.9525 -0.59973,-0.38807 -2.78696,-0.3175 -3.4925,0.10583 z"
           id="path9488" />
        <path
           style="stroke-width:0.03527778"
           inkscape:connector-curvature="0"
           d="m -96.906113,-59.412262 c 0,0.17639 0.24693,0.35276 0.52916,0.35276 0.28221,0 0.52917,-0.17637 0.52917,-0.35276 0,-0.21167 -0.24696,-0.35277 -0.52917,-0.35277 -0.28223,0 -0.52916,0.1411 -0.52916,0.35277 z"
           id="path9510" />
        <path
           style="stroke-width:0.03527778"
           inkscape:connector-curvature="0"
           d="m -600.31998,-23.358372 c 0,0.17637 -0.38807,0.28221 -0.84667,0.28221 -1.51696,0 -4.19806,3.10446 -5.85613,6.70279 -0.38804,0.88194 -1.12887,2.36361 -1.5875,3.28084 -0.49387,0.9525 -0.88193,2.08137 -0.88193,2.54 0,0.42333 -0.24694,1.4816598 -0.52917,2.3283298 -0.84667,2.32833 -0.84667,5.92667 -0.10583,10.97137 0.49389,3.42196 2.61056,6.56167 6.91443,10.2305702 1.05833,0.91723 1.55223,1.12889 2.29307,1.02306 0.1411,0 0.24693,0.10583 0.24693,0.2822 0,0.1764 0.52917,0.45863 1.16417,0.56447 0.59973,0.1411 1.55223,0.49387 2.0814,0.74083 0.56443,0.3175 2.32833,0.52917 4.40973,0.5997 l 3.4572,0.0706 0.10583,-1.51694 c 0.10584,-1.44639 0.0706,-1.51696 -1.16416,-2.04613 -1.02304,-0.42333 -1.76387,-0.4586 -3.38667,-0.21166 -1.5522,0.24696 -2.08137,0.21166 -2.2225,-0.1411 -0.10583,-0.24694 -0.4586,-0.42334 -0.81137,-0.42334 -0.3528,0.0353 -1.4464,-0.3175 -2.43417,-0.74083 -1.34056,-0.59973 -2.2225,-1.3405702 -3.66889,-3.1750002 -2.78694,-3.6336 -3.52777,-5.715 -3.52777,-10.08944 0,-3.4925 0.38803,-5.36223 1.62277,-8.1844598 0.28223,-0.5997 0.49389,-1.34054 0.49389,-1.65804 0,-1.05833 1.905,-4.7625 2.54,-4.90363 0.42334,-0.10583 0.56444,-0.38803 0.42334,-0.74083 -0.28223,-0.7761 2.2225,-3.28083 3.59833,-3.56304 1.7286,-0.38806 3.38667,-1.23473 3.21027,-1.69333 -0.0706,-0.21167 -0.35277,-0.42333 -0.635,-0.45863 -0.28223,0 -0.635,-0.0705 -0.84667,-0.1411 -0.70556,-0.24694 -4.05693,-0.1764 -4.05693,0.0706 z"
           id="path9842" />
        <path
           style="stroke-width:0.03527778"
           inkscape:connector-curvature="0"
           d="m -94.507243,-19.548372 c -1.69333,0.28221 -3.10444,1.27 -3.10444,2.11667 0,1.16417 1.02307,1.37583 4.58611,1.05833 l 3.31612,-0.3175 2.36361,1.23471 c 1.55223,0.8114 2.89277,1.905 3.88056,3.06916 1.48167,1.72863 1.55221,1.9403 1.69333,4.3744698 0.0705,1.79916 0,2.57527 -0.3175,2.57527 -0.21166,0 -0.3175,0.28223 -0.17639,0.635 0.42333,1.37583 -2.3989,6.27943 -5.08,8.81943 -1.94027,1.83446 -5.32694,4.3039 -6.38527,4.65667 -0.28223,0.10583 -1.41113,0.1764 -2.46946,0.1764 -1.05834,0 -2.15194,0.1411 -2.36361,0.28223 -0.7761,0.49387 -0.49389,1.8344302 0.56444,2.8575002 1.02306,0.98777 1.09363,0.98777 2.82223,0.56443 0.9525,-0.21166 1.905,-0.3175 2.0814,-0.21166 0.21166,0.10583 0.42333,-0.0353 0.52916,-0.3175 0.14111,-0.28224 0.98777,-0.88194 1.905,-1.37584 2.39888,-1.2347302 8.21971,-6.1736002 8.21971,-6.9497302 0,-0.1411 0.635,-1.05833 1.37583,-2.01083 0.77613,-0.95249995 1.5875,-2.39886995 1.83446,-3.21027 0.24694,-0.7761 0.52917,-1.4464 0.67027,-1.4464 0.14111,0 0.24694,-0.4586 0.28223,-1.02304 0,-0.59973 0.17638,-1.37583 0.38804,-1.76389 0.91723,-1.65807 -0.21166,-6.1383398 -2.11666,-8.6077698 -1.86971,-2.43417 -5.50334,-4.4803 -9.13694,-5.15057 -2.29306,-0.42333 -2.96333,-0.42333 -5.36223,-0.0353 z"
           id="path10076" />
        <path
           style="stroke-width:0.03527778"
           inkscape:connector-curvature="0"
           d="m -188.07984,3.0932658 c -0.38806,0.28223 -1.19943,0.56446 -1.83443,0.635 -0.635,0.1058301 -2.18724,0.6702901 -3.4925,1.3052901 -2.04613,0.9524999 -2.5753,1.0583399 -4.1628,0.8819399 -1.79917,-0.2469399 -1.8697,-0.2116699 -2.96333,1.02306 -0.635,0.70554 -1.12887,1.19944 -1.12887,1.09361 0,-0.59974 -3.2103,1.62276 -5.32697,3.7041602 -1.34053,1.30527 -2.6811,2.50473 -2.9986,2.61057 -0.28223,0.10583 -0.59973,0.49387 -0.74083,0.81137 -0.38807,1.05833 -1.69334,2.46946 -2.15194,2.29306 -0.24696,-0.0706 -0.35279,0.0706 -0.21166,0.42334 0.10583,0.28223 -0.0353,0.98776 -0.3528,1.51693 -0.74083,1.34057 -3.03387,7.9375 -3.59833,10.3364 -0.3175,1.48167 -0.35277,2.29306 -0.0353,3.42193 0.3175,1.16417 0.28223,1.72863 -0.1764,2.82224 -0.42333,1.12889 -0.4586,2.08139 -0.24694,5.08 0.38807,5.04473 0.52917,5.715 1.34057,7.3025 0.9172,1.79916 1.76387,4.05693 2.1872,5.92666 0.21167,0.91723 0.59973,1.55223 0.9525,1.62277 0.3528,0.10583 0.635,0.52917 0.6703,0.9525 0.0705,0.9525 0.70554,1.79917 1.34054,1.79917 0.24696,0 1.12889,0.52916 1.905,1.19946 0.81139,0.67027 2.36363,1.7286 3.4925,2.3636 1.09363,0.59973 2.82223,1.62277 3.77473,2.2225 0.98777,0.635 2.7164,1.48167 3.88056,1.905 1.16417,0.4586 2.57527,1.02307 3.10444,1.30527 0.56443,0.28223 1.34056,0.52917 1.7639,0.52917 0.42333,0 1.16416,0.21166 1.62276,0.45863 0.635,0.3175 2.04611,0.35277 5.11527,0.17637 6.8439,-0.35277 8.78417,-0.635 10.1953,-1.37584 0.70554,-0.38803 1.30527,-0.5997 1.30527,-0.4586 0,0.1411 0.3175,-0.1764 0.74083,-0.70556 0.38807,-0.49387 0.9525,-0.91721 1.23473,-0.91721 0.28221,0 0.49387,-0.10583 0.49387,-0.28223 0,-0.1411 0.42334,-0.28223 0.91723,-0.3175 0.4939,0 1.09361,-0.21166 1.34057,-0.4586 0.2822,-0.28223 0.24693,-0.3528 -0.21167,-0.1764 -0.88196,0.35277 -0.77613,0 0.3175,-1.4464 0.49387,-0.67026 1.12887,-1.16416 1.37584,-1.05833 0.24693,0.10583 0.635,-0.0705 0.84666,-0.35277 0.35277,-0.38806 0.35277,-0.4939 0,-0.4939 -0.21166,0 -0.0706,-0.42333 0.35277,-0.98776 1.5875,-1.97557 4.3039,-6.5264 4.445,-7.40834 0.10583,-0.52916 0.3175,-1.0936 0.52917,-1.30527 0.1764,-0.17639 0.3175,-0.67029 0.3175,-1.09363 0,-0.38803 0.35277,-1.27 0.8114,-1.94026 0.42333,-0.67027 0.81137,-1.55224 0.84666,-1.97557 0.0353,-0.42333 0.3175,-1.34054 0.635,-1.97554 0.3175,-0.67029 0.52917,-1.34056 0.49387,-1.51696 -0.0353,-0.17637 0.10584,-0.81137 0.3528,-1.37583 0.24693,-0.59971 0.5997,-1.86971 0.74083,-2.82221 0.17637,-0.98779 0.4586,-2.39889 0.67027,-3.175 0.21167,-0.77613 0.38807,-2.04613 0.38807,-2.8575 0,-1.05833 0.21166,-1.62279 0.88193,-2.18723 0.4939,-0.42333 0.88194,-0.70556 0.88194,-0.59973 0,0.0706 0.49389,-0.10583 1.09363,-0.4586 1.5522,-0.84667 1.30526,-1.30527 -0.74084,-1.27 -1.05833,0 -1.7639,-0.1411 -1.7639,-0.35277 -0.0706,-2.64583 -2.15193,-13.0528 -2.92806,-14.53446 -0.81137,-1.51694 -5.715,-5.8208402 -7.97277,-6.9850002 -3.06917,-1.5522099 -7.19667,-2.64584 -10.75973,-2.8575 -7.79637,-0.4586 -8.8547,-0.4586 -9.56027,0 z"
           id="path10682" />
        <path
           style="stroke-width:0.03527778"
           inkscape:connector-curvature="0"
           d="m -95.847783,39.859398 c 0,0.28223 -0.42333,0.8114 -0.91723,1.16417 -1.69333,1.23473 -0.1764,2.61056 3.0339,2.75167 2.32833,0.0706 6.91443,0.88193 8.64304,1.51693 1.69333,0.59973 1.83446,0.77613 3.24556,3.56307 l 1.51694,2.96333 -0.38804,2.50473 c -0.21167,1.37583 -0.4939,2.64583 -0.6703,2.8575 -0.1411,0.17637 -0.42333,1.12887 -0.67027,2.08137 -0.59973,2.43417 -1.27,3.63363 -3.24556,5.7503 -0.9525,0.98777 -1.7286,1.97553 -1.7286,2.15193 0,0.42334 -3.77473,4.09223 -5.29167,5.15057 -0.98777,0.67027 -1.5875,0.81137 -2.96333,0.67027 -0.98777,-0.0706 -1.905,0.0353 -2.18723,0.28223 -0.59971,0.49387 -0.67027,2.75166 -0.0353,2.92803 0.21166,0.0706 0.9525,0.28224 1.55223,0.4939 2.2225,0.70557 4.83304,-0.4586 8.74887,-3.84527 3.3514,-2.92806 4.02167,-3.59833 3.84529,-3.88056 -0.10583,-0.1764 -0.0353,-0.3175 0.14111,-0.3175 0.1411,0 0.98777,-1.05833 1.83443,-2.3989 1.9403,-2.9986 2.82223,-3.98637 3.28084,-3.70417 0.21166,0.14113 0.24696,0.0353 0.0706,-0.24693 -0.1411,-0.21167 -0.10583,-1.02307 0.10583,-1.7286 1.62277,-5.64447 1.7639,-10.26584 0.38807,-12.5589 -0.38807,-0.56444 -0.6703,-1.34057 -0.6703,-1.65807 0,-0.3175 -0.3175,-0.67026 -0.67027,-0.81137 -0.38806,-0.10583 -1.0936,-0.74083 -1.5875,-1.37583 -0.49389,-0.6703 -1.4111,-1.51696 -2.0461,-1.905 -1.5875,-0.9878 -4.48029,-1.9403 -5.11529,-1.69333 -0.49387,0.21166 -7.33777,-0.70557 -7.90221,-1.05834 -0.1764,-0.10583 -0.3175,0.0353 -0.3175,0.35277 z"
           id="path11266" />
        <path
           style="stroke-width:0.03527778"
           inkscape:connector-curvature="0"
           d="m -596.79221,57.533568 c -1.05834,0.24693 -2.04611,0.38806 -2.2225,0.28223 -0.14111,-0.0706 -0.9525,0.1411 -1.7639,0.52917 -1.83444,0.84666 -2.78694,1.2347 -3.24554,1.27 -0.56446,0.0705 -2.64583,2.08137 -2.64583,2.57527 0,0.24693 -0.14113,0.4586 -0.3528,0.4586 -0.49387,0 -3.9511,7.05556 -3.73943,7.62 0.10583,0.28223 0.0706,0.4939 -0.10584,0.4939 -0.4939,0 -1.16416,2.01083 -0.9525,2.71639 0.10584,0.38804 0.35277,2.18721 0.52917,4.02167 0.1764,1.83444 0.4939,3.70417 0.70556,4.19804 0.98777,2.25779 3.91584,6.56166 4.90361,7.1614 0.24693,0.17639 0.91723,0.74083 1.48166,1.30526 1.4464,1.41113 4.7625,3.5278 6.8086,4.3039 0.91724,0.35277 2.29307,1.02307 3.06917,1.51694 1.97557,1.23473 2.8928,1.1289 4.19807,-0.42334 0.74083,-0.88193 0.9525,-1.4111 0.74083,-1.69333 -0.21167,-0.24693 -0.24694,-0.49387 -0.1411,-0.635 0.10583,-0.10583 -0.14113,-0.2822 -0.52917,-0.42333 -0.42333,-0.10584 -0.74083,-0.35277 -0.74083,-0.4586 0,-0.14111 -0.635,-0.24694 -1.41113,-0.1764 -0.9525,0.0353 -1.97554,-0.21167 -2.92804,-0.74084 -0.8114,-0.42333 -2.18723,-1.05833 -2.99863,-1.37583 -0.81137,-0.3175 -1.48167,-0.84667 -1.48167,-1.12887 0,-0.28223 -0.1411,-0.52917 -0.3175,-0.52917 -0.52916,0 -3.03387,-2.15196 -3.98637,-3.45723 -3.06916,-4.16277 -2.99863,-4.05693 -3.45723,-7.69056 -0.42333,-3.73944 -0.42333,-3.77471 1.4464,-8.60777 0.42333,-1.05833 1.94027,-3.42194 3.1397,-4.83307 0.1764,-0.24693 0.3528,-0.67026 0.3528,-0.98776 0,-0.35277 0.35277,-0.52917 1.05833,-0.52917 0.59971,0 1.05834,-0.1411 1.05834,-0.3175 0,-0.1764 0.84666,-0.67027 1.8697,-1.1289 1.48167,-0.67027 2.50473,-0.81137 5.53863,-0.88193 4.93887,-0.0706 4.7272,0 3.81,-0.9525 -1.55223,-1.62277 -4.65667,-2.18724 -7.69056,-1.48167 z"
           id="path11618" />
        <path
           style="stroke-width:0.03527778"
           inkscape:connector-curvature="0"
           d="m -150.45778,115.63607 c -0.70556,0.42333 -1.1289,0.98777 -1.1289,1.4464 -0.0353,1.05833 -4.83303,10.01887 -5.82083,10.83027 -0.2822,0.24693 -0.52917,0.56443 -0.52917,0.74083 0,0.4939 -2.01083,2.46943 -3.56303,3.52777 -0.9878,0.635 -2.01084,1.02306 -2.78697,1.02306 -2.9986,0 -11.50053,-3.24556 -12.87637,-4.9036 -0.38806,-0.45863 -1.1289,-1.5875 -1.65806,-2.46946 -1.7639,-2.92804 -2.64584,-3.70417 -3.91584,-3.38667 -0.98776,0.24696 -1.51693,1.5875 -0.84666,2.11667 0.21166,0.1764 0.4586,0.8114 0.4939,1.37583 0.0353,0.59973 0.3175,1.19946 0.635,1.34057 0.2822,0.17639 0.84666,0.91723 1.19943,1.62276 0.9525,1.83447 3.84527,4.51557 5.32694,4.9389 0.67029,0.21167 2.43416,0.84667 3.88056,1.4111 4.23333,1.65807 4.9389,1.79917 8.04333,1.65807 3.0339,-0.1764 4.16277,-0.52917 4.9389,-1.65807 0.24694,-0.35276 0.67027,-0.635 0.9525,-0.635 0.28221,0 0.67027,-0.35276 0.91721,-0.81137 0.21166,-0.42333 0.81139,-1.16416 1.34056,-1.65806 0.4939,-0.4939 1.0936,-1.16417 1.27,-1.48167 0.21167,-0.3175 1.27,-1.94027 2.43417,-3.6336 1.97556,-2.96333 3.73943,-6.59696 3.73943,-7.76113 0,-0.2822 0.1764,-0.52917 0.3528,-0.52917 0.635,0 0.35277,-1.62276 -0.45863,-2.71637 l -0.81137,-1.12889 z"
           id="path12722" />
        <path
           style="stroke-width:0.03527778"
           inkscape:connector-curvature="0"
           d="m -221.86001,116.8708 c -0.3175,0.35277 -0.67027,1.51694 -0.7761,2.61054 -0.1764,1.30529 -0.4939,2.2225 -0.9525,2.64583 -0.35277,0.3175 -0.67027,0.8114 -0.67027,1.09363 0,0.98777 -2.54,5.6797 -4.40973,8.14917 -1.05834,1.37583 -1.94027,2.6811 -1.94027,2.89277 0,0.21166 -0.28223,0.4586 -0.59973,0.59973 -0.35277,0.10583 -0.91723,0.4586 -1.27,0.7761 -0.9525,0.8114 -6.56167,1.16417 -9.0664,0.56443 -2.64583,-0.5997 -3.59833,-1.02303 -5.29167,-2.25776 -1.65803,-1.19944 -4.23333,-3.4925 -4.23333,-3.73944 0,-0.10583 -0.5997,-1.19946 -1.34054,-2.3989 -0.74083,-1.23473 -1.55223,-2.96333 -1.79916,-3.84527 -0.28224,-1.05833 -0.8114,-1.86973 -1.51697,-2.39889 -0.56443,-0.42334 -0.9525,-0.9525 -0.88193,-1.19944 0.1411,-0.3175 -0.1411,-0.38806 -0.9525,-0.28223 -1.69334,0.24693 -2.0461,0.70556 -1.7639,2.32833 0.28223,1.7286 0.52917,2.25777 2.11667,4.33917 0.67029,0.88193 1.19946,1.7639 1.19946,2.0461 0,1.3053 5.8561,8.2903 6.985,8.2903 0.2822,0 0.9525,0.38803 1.5522,0.88193 1.3053,1.0936 5.99723,2.54 7.86697,2.43417 6.70276,-0.42333 7.02026,-0.4586 8.96053,-1.48167 1.09363,-0.56443 2.15197,-1.37583 2.36363,-1.79916 0.21167,-0.42334 0.91721,-1.37584 1.5875,-2.11667 0.67027,-0.74083 1.48167,-1.86973 1.86971,-2.54 0.35279,-0.67027 0.91723,-1.4111 1.23473,-1.65807 0.3175,-0.24693 0.4939,-0.49387 0.42333,-0.52916 -0.10583,-0.0353 0.42333,-1.30527 1.1289,-2.82221 0.70554,-1.55223 1.30527,-2.89279 1.30527,-3.06916 0,-0.14113 0.24693,-0.45863 0.52916,-0.70557 0.28224,-0.24693 0.52917,-0.74083 0.52917,-1.0936 0,-0.74083 1.05833,-3.13973 1.4111,-3.13973 0.10584,0 0.1764,-0.38807 0.1764,-0.88194 -0.10583,-1.94029 -2.57527,-3.03389 -3.77473,-1.69333 z"
           id="path12756" />
        <path
           style="stroke-width:0.03527778"
           inkscape:connector-curvature="0"
           d="m -301.16445,118.7405 c -0.28223,0.1764 -0.38806,0.42334 -0.28223,0.56447 0.42334,0.42333 -2.08137,4.86833 -3.56303,6.3147 -0.8114,0.74083 -1.4464,1.65807 -1.4464,2.01083 0,0.3528 -0.56444,1.19947 -1.23473,1.905 -0.67027,0.6703 -1.23471,1.4464 -1.23471,1.72863 0,0.28221 -0.21166,0.52917 -0.45863,0.52917 -0.24693,0 -0.9172,0.49387 -1.51693,1.0936 -0.56444,0.59973 -1.69334,1.55223 -2.50473,2.11667 -1.37584,0.9525 -1.72861,1.02306 -6.17361,1.23473 -4.65666,0.24694 -4.69193,0.24694 -6.985,-0.8114 -2.54,-1.16416 -5.11526,-3.175 -6.06776,-4.72723 -0.3528,-0.56443 -0.56447,-1.02304 -0.4939,-1.02304 0.0706,0 -0.42334,-0.56446 -1.05834,-1.27 -1.69333,-1.76389 -2.75166,-1.5875 -2.89276,0.49387 -0.10584,1.3053 0.10583,1.83447 1.19943,3.45724 3.13973,4.55083 7.83167,7.54943 11.8886,7.54943 0.9878,0 2.92807,0.1764 4.26863,0.3528 1.79917,0.2822 2.50471,0.24693 2.71637,-0.0353 0.14113,-0.21167 0.38807,-0.3175 0.56447,-0.21167 0.35276,0.21167 3.56303,-0.70553 5.64443,-1.5875 0.635,-0.2822 1.69333,-1.2347 2.3989,-2.15193 0.70554,-0.91723 1.4111,-1.65807 1.5875,-1.65807 0.17637,0 0.74083,-0.70553 1.2347,-1.5522 0.4939,-0.88196 1.48167,-2.18723 2.15197,-2.92806 1.4111,-1.51694 3.35137,-4.55084 3.10443,-4.79777 -0.10583,-0.10584 0.635,-0.84667 1.5875,-1.69334 2.0461,-1.76389 2.43417,-3.28083 0.98777,-3.81 -0.4586,-0.17639 -1.02304,-0.56446 -1.27,-0.88196 -0.52917,-0.635 -1.37583,-0.70554 -2.15194,-0.21167 z"
           id="path12806" />
        <path
           style="stroke-width:0.03527778"
           inkscape:connector-curvature="0"
           d="m -383.43221,124.56134 c -1.02307,1.19946 -2.36363,3.88056 -2.3989,4.72723 0,0.4939 -4.02167,5.5739 -5.715,7.1614 -0.52917,0.52916 -0.98777,1.0936 -0.98777,1.30527 0,0.49389 -3.9864,3.06916 -5.715,3.6336 -2.78696,0.9525 -8.14917,0.24696 -11.04196,-1.4111 -1.48167,-0.84667 -4.51554,-4.19807 -5.43277,-5.96194 -0.8114,-1.6228 -3.45723,-4.3039 -4.19807,-4.33917 -0.635,0 -1.79916,1.41111 -1.83443,2.2225 0,0.635 1.1289,2.50471 1.94027,3.24554 0.21166,0.1764 0.67029,0.8114 1.02306,1.37583 0.9525,1.48167 5.8561,6.56167 6.94973,7.09084 4.7625,2.46946 12.10027,2.78696 15.3811,0.67029 0.56444,-0.35279 1.97557,-1.30529 3.13974,-2.04613 2.29303,-1.51693 6.59693,-6.3147 9.13693,-10.19526 0.84667,-1.30527 1.48167,-2.36361 1.37583,-2.36361 -0.0706,0 0.1764,-0.3175 0.56444,-0.70556 0.52917,-0.52917 0.70556,-1.16417 0.70556,-2.75167 0,-3.10443 -1.16416,-3.77473 -2.89276,-1.65806 z"
           id="path12924" />
        <path
           style="stroke-width:0.03527778"
           inkscape:connector-curvature="0"
           d="m -458.22111,130.1705 c -0.56444,0.6703 -0.98777,1.41113 -0.98777,1.6228 0,1.37583 -5.64446,7.69054 -8.36083,9.41917 -0.56447,0.3175 -1.27,0.84666 -1.6228,1.12887 -0.98777,0.84666 -3.6336,1.4464 -7.3025,1.65806 -3.3161,0.21167 -3.38667,0.21167 -5.60917,-0.9525 -1.69333,-0.88193 -2.8575,-1.86973 -4.4097,-3.73943 -1.19944,-1.37584 -2.3636,-2.54 -2.61057,-2.54 -0.24693,-0.0353 -0.74083,-0.4939 -1.05833,-1.09363 -0.3175,-0.56444 -0.81137,-1.05834 -1.02304,-1.05834 -0.24696,0 -0.45863,-0.17637 -0.45863,-0.35276 0,-0.21167 -0.88193,-0.91724 -1.94026,-1.5875 -1.05834,-0.70557 -1.94027,-1.41111 -1.94027,-1.5875 0,-0.38807 -1.16417,-0.45861 -2.75167,-0.14111 -0.9878,0.21167 -1.02306,0.24694 -0.635,1.27 0.42333,1.16417 3.175,3.81 3.9511,3.81 0.28223,0 0.4939,0.21167 0.4939,0.42334 0,0.24693 0.74083,1.05833 1.65804,1.79916 0.91723,0.74084 2.43416,2.25777 3.42196,3.38667 2.71637,3.10444 4.51554,4.48027 7.1261,5.32694 2.89277,0.91723 7.97277,1.02306 10.33637,0.17639 0.84667,-0.28223 1.65807,-0.42333 1.83447,-0.3175 0.17637,0.10584 1.05833,-0.28223 1.97553,-0.88196 0.91723,-0.5997 1.7639,-1.0936 1.905,-1.0936 0.70557,0 7.83167,-7.05557 8.96057,-8.85473 1.37583,-2.25777 2.3636,-3.4925 2.6811,-3.4925 0.45863,0 0.10583,-2.39887 -0.4586,-3.10444 -0.70557,-0.84666 -2.18723,-0.4939 -3.175,0.7761 z"
           id="path13070" />
        <path
           style="stroke-width:0.03527778"
           inkscape:connector-curvature="0"
           d="m -151.30445,161.3208 c 0.24694,0.10583 0.56444,0.0705 0.67027,-0.0353 0.14113,-0.10583 -0.0705,-0.21166 -0.4586,-0.17637 -0.38806,0 -0.4939,0.10584 -0.21167,0.21167 z"
           id="path13902" />
        <path
           style="stroke-width:0.03527778"
           inkscape:connector-curvature="0"
           d="m -169.64888,176.34913 c -0.10583,0.67027 -0.0706,0.88194 0.1411,0.67027 0.21167,-0.21166 0.28223,-0.635 0.21167,-0.98777 -0.10584,-0.49389 -0.1764,-0.42333 -0.35277,0.3175 z"
           id="path14272" />
      </g>
    </g>
  </g>
</svg>
